<?xml version="1.0" encoding="UTF-8"?>
<svg version="1.1" xmlns="http://www.w3.org/2000/svg" width="254" height="201">
<path d="M0 0 C0.91800385 -0.00043808 1.83600769 -0.00087616 2.78182983 -0.00132751 C5.79032294 0.00074824 8.7982459 0.02402181 11.80664062 0.04760742 C13.90270687 0.05320769 15.99877705 0.05747575 18.09484863 0.06047058 C23.59235615 0.07188538 29.08962316 0.10132358 34.58703613 0.13458252 C40.20447538 0.16535605 45.82195375 0.17899146 51.43945312 0.1940918 C62.44737087 0.22619652 73.45511069 0.27735207 84.46289062 0.34057617 C82.80909416 8.60955848 79.37813418 16.42777224 76.46289062 24.34057617 C49.07289062 24.67057617 21.68289062 25.00057617 -6.53710938 25.34057617 C20.52289063 25.67057617 47.58289063 26.00057617 75.46289062 26.34057617 C77.73118331 33.14545422 77.73118331 33.14545422 78.08789062 36.65307617 C78.20003906 37.66821289 78.20003906 37.66821289 78.31445312 38.70385742 C78.45200687 41.14724627 78.47740372 43.55876108 78.47216797 46.00537109 C78.47082855 46.81689133 78.46948914 47.62841156 78.46810913 48.46452332 C78.46638702 49.08362076 78.46466492 49.7027182 78.46289062 50.34057617 C67.03154865 50.45672158 55.60034838 50.54541904 44.16853523 50.59963703 C38.85953976 50.62566665 33.5509497 50.66094321 28.2421875 50.71777344 C23.11337201 50.77233014 17.98494507 50.80204656 12.85586166 50.81496239 C10.90472172 50.82415991 8.95360166 50.84212032 7.00262833 50.86922646 C-14.15336779 51.15131683 -14.15336779 51.15131683 -22.41574097 43.63056946 C-27.59770156 38.30359188 -29.64494088 32.29293491 -30.03710938 24.96557617 C-29.81869923 18.11889304 -27.41119382 12.64716847 -22.92773438 7.48901367 C-16.23172769 1.25374139 -8.83811159 -0.11212131 0 0 Z " fill="#407072" transform="translate(29.537109375,75.659423828125)"/>
<path d="M0 0 C1.07411133 -0.0299707 1.07411133 -0.0299707 2.16992188 -0.06054688 C5.67108342 -0.05730205 7.67543376 0.14580688 10.50390625 2.27734375 C14.36300443 7.62591842 13.28596689 14.31343708 13.3125 20.625 C13.333125 21.83220703 13.35375 23.03941406 13.375 24.28320312 C13.41060935 32.42439037 13.1301286 38.80478192 7.6875 45.25 C3.36829607 48.84933661 0.23755008 50.79168303 -5.453125 50.94921875 C-6.52844482 50.98474854 -7.60376465 51.02027832 -8.71166992 51.05688477 C-9.85869385 51.07936279 -11.00571777 51.10184082 -12.1875 51.125 C-13.36868408 51.15843506 -14.54986816 51.19187012 -15.7668457 51.22631836 C-27.82176194 51.53467945 -39.87975946 51.5400184 -51.9375 51.4375 C-51.9375 52.0975 -51.9375 52.7575 -51.9375 53.4375 C-27.5175 53.4375 -3.0975 53.4375 22.0625 53.4375 C18.914764 55.9556888 15.7657628 58.43307607 12.5625 60.875 C8.40438506 64.10219368 4.68107652 67.5091372 1.29046631 71.5486908 C-1.55805955 73.9635935 -3.07223132 73.94874127 -6.77246094 73.97094727 C-8.53514313 73.99470177 -8.53514313 73.99470177 -10.33343506 74.01893616 C-11.60012024 74.01397629 -12.86680542 74.00901642 -14.171875 74.00390625 C-16.13256927 74.01320412 -16.13256927 74.01320412 -18.13287354 74.02268982 C-20.90028485 74.03309254 -23.66718205 74.02853921 -26.43457031 74.01391602 C-29.963191 73.99678777 -33.49017415 74.02014624 -37.01861191 74.05540562 C-40.40312584 74.08280086 -43.78725563 74.07263343 -47.171875 74.06640625 C-48.43046326 74.07966446 -49.68905151 74.09292267 -50.98577881 74.10658264 C-59.23951198 74.01948797 -64.49762625 72.77715177 -70.449646 66.95948792 C-75.40472927 61.42582338 -76.35359796 56.41280443 -76.1796875 49.21484375 C-75.57260004 42.25292148 -72.9759611 37.92945164 -68.14453125 32.98046875 C-61.68668521 28.46569143 -55.15416826 27.97866031 -47.53125 27.92578125 C-46.5659436 27.90783005 -45.60063721 27.88987885 -44.6060791 27.87138367 C-41.54992932 27.81758802 -38.49393294 27.78348394 -35.4375 27.75 C-33.35414546 27.71679978 -31.27081109 27.68230764 -29.1875 27.64648438 C-24.10427791 27.56187933 -19.02109888 27.49492208 -13.9375 27.4375 C-12.51198421 22.3409842 -12.96714857 17.32325578 -13.09765625 12.06640625 C-12.91011895 7.81708549 -12.0543659 5.20361667 -9.80859375 1.65234375 C-6.76649289 -0.32279898 -3.50657478 -0.03453207 0 0 Z " fill="#407072" transform="translate(118.9375,-0.4375)"/>
<path d="M0 0 C12.53657757 10.74093111 20.26843461 23.29939172 21.875 39.9375 C22.56373804 55.58907193 18.50644107 69.2626788 8 81 C7.40445313 81.68835938 6.80890625 82.37671875 6.1953125 83.0859375 C-3.86583519 93.98203521 -16.79828063 98.82087164 -31.265625 100.34375 C-46.31305242 100.81644405 -60.67711128 94.9586767 -72 85.1875 C-76.72729748 80.60597822 -80.08351857 75.88015512 -83 70 C-83.58201172 68.87271484 -83.58201172 68.87271484 -84.17578125 67.72265625 C-90.00299133 55.66562884 -90.74469069 41.94642257 -87.09765625 29.10546875 C-80.98661656 11.81622835 -70.96515441 0.64525953 -54.4375 -7.3125 C-36.56066949 -14.69778636 -15.3757076 -11.51578656 0 0 Z M-67.9375 18.4375 C-75.64093659 29.11516511 -77.15400087 40.11715389 -76 53 C-74.57060966 59.35449177 -72.00491593 64.85082237 -68 70 C-67.51917969 70.63550781 -67.03835937 71.27101563 -66.54296875 71.92578125 C-60.42908231 79.52876416 -51.71955096 85.29730494 -42 87 C-28.36046023 88.01766514 -18.11325163 86.27959385 -7 78 C-6.113125 77.401875 -5.22625 76.80375 -4.3125 76.1875 C4.2471175 68.09056453 8.80732827 56.97668836 9.25 45.375 C9.09620449 34.01122101 5.19257405 22.98591845 -2.44921875 14.46875 C-11.41636748 5.97593407 -21.74481535 1.92100135 -34.0625 1.5 C-47.7742419 1.98644761 -59.20755874 7.81297574 -67.9375 18.4375 Z " fill="#407072" transform="translate(198,63)"/>
<path d="M0 0 C0.91188583 -0.01614349 1.82377167 -0.03228699 2.76329041 -0.04891968 C4.68367029 -0.07647624 6.60414555 -0.09797611 8.5246582 -0.11376953 C10.48686456 -0.13690607 12.44894034 -0.17796448 14.41040039 -0.23681641 C17.25363078 -0.32204428 20.09315256 -0.35446592 22.9375 -0.375 C23.81156998 -0.41001617 24.68563995 -0.44503235 25.5861969 -0.48110962 C28.09845918 -0.46320792 30.03116828 -0.36176718 32.40234375 0.4765625 C34.66397063 2.89095025 35.97974999 5.5153692 37.40234375 8.4765625 C38.75506303 10.40901862 40.12788111 12.32768377 41.52734375 14.2265625 C42.18992187 15.12890625 42.8525 16.03125 43.53515625 16.9609375 C45.15088493 19.13777697 46.77577825 21.3078085 48.40234375 23.4765625 C30.58234375 23.4765625 12.76234375 23.4765625 -5.59765625 23.4765625 C-5.59765625 24.1365625 -5.59765625 24.7965625 -5.59765625 25.4765625 C-4.43306885 25.45561523 -3.26848145 25.43466797 -2.06860352 25.41308594 C2.28673824 25.34022743 6.64202703 25.29459732 10.99780273 25.25683594 C12.87647588 25.2368243 14.75508755 25.20960613 16.63354492 25.17480469 C19.34699748 25.1258228 22.05962071 25.10348921 24.7734375 25.0859375 C26.0161869 25.05496979 26.0161869 25.05496979 27.28404236 25.02337646 C36.11407575 25.02004238 43.1290866 28.35266862 49.40234375 34.4765625 C54.05601835 41.05589556 53.67564457 47.60633878 53.77734375 55.4140625 C53.83341797 57.04118164 53.83341797 57.04118164 53.890625 58.70117188 C53.97789624 66.58952187 53.97789624 66.58952187 51.31640625 70.69140625 C47.75985528 72.87015128 45.55829145 73.14634642 41.40234375 73.1015625 C40.20609375 73.11445313 39.00984375 73.12734375 37.77734375 73.140625 C33.35050933 72.26960434 31.95870418 71.1953345 29.40234375 67.4765625 C28.68642015 64.20126675 28.6122885 61.00832988 28.58984375 57.6640625 C28.56470703 56.78041016 28.53957031 55.89675781 28.51367188 54.98632812 C28.45503817 52.81688116 28.42576989 50.64667523 28.40234375 48.4765625 C27.41427734 48.45674316 26.42621094 48.43692383 25.40820312 48.41650391 C21.71037122 48.33990645 18.01290533 48.25127688 14.31542969 48.15917969 C12.72110265 48.12111198 11.1266962 48.08622213 9.53222656 48.0546875 C7.22822865 48.00854987 4.92476709 47.95064185 2.62109375 47.890625 C1.91867554 47.87907379 1.21625732 47.86752258 0.49255371 47.85562134 C-7.89648264 47.6105291 -14.99515197 45.90289437 -21.23046875 39.90625 C-26.38962222 34.34832138 -28.1788124 28.42546907 -27.97265625 20.875 C-26.8615398 13.76848435 -22.98620145 8.14803129 -17.5390625 3.6328125 C-11.94591086 0.30167994 -6.32184793 0.10710232 0 0 Z " fill="#407073" transform="translate(77.59765625,128.5234375)"/>
<path d="M0 0 C4.34921866 1.30762931 7.9918526 2.99574982 11.87890625 5.3359375 C12.96494141 5.98820313 14.05097656 6.64046875 15.16992188 7.3125 C16.28947266 7.993125 17.40902344 8.67375 18.5625 9.375 C20.24762695 10.38433594 20.24762695 10.38433594 21.96679688 11.4140625 C35.66288002 19.68216736 35.66288002 19.68216736 36.6875 23.6875 C35.69359865 28.47629742 33.51495838 32.56459829 30 36 C27.12173232 36.99628234 25.06080844 37.45240018 22.19009399 36.22813416 C20.12453818 34.99552367 18.16217643 33.66986848 16.1953125 32.28515625 C15.1093428 31.55056435 15.1093428 31.55056435 14.00143433 30.8011322 C11.6979261 29.23753393 9.41165534 27.6506153 7.125 26.0625 C5.56357765 24.99646673 4.00108836 23.9319944 2.4375 22.86914062 C-1.38760352 20.26402614 -5.19742715 17.63788067 -9 15 C-8.06652642 13.24784894 -7.1280468 11.49836437 -6.1875 9.75 C-5.66542969 8.77546875 -5.14335937 7.8009375 -4.60546875 6.796875 C-3.21034812 4.36644588 -1.73804039 2.19212301 0 0 Z " fill="#407172" transform="translate(218,130)"/>
<path d="M0 0 C3.12068856 1.79273598 4.54965052 3.24259405 6.375 6.3125 C7.21219504 9.91243865 6.89539601 12.41841597 6 16 C4.17660948 18.70567626 2.92542564 20.53728718 0 22 C-4.51910283 22.6326744 -8.66253178 22.77294479 -12.5 20.0625 C-15.72393818 16.11317573 -16.40343488 13.04293604 -16 8 C-12.90170997 0.49887676 -7.65165705 -1.2297306 0 0 Z " fill="#3F7173" transform="translate(162,91)"/>
<path d="M0 0 C2.4375 1.625 2.4375 1.625 4 4 C4.59874771 8.11639054 4.42928602 10.24049397 2.375 13.875 C-0.5289923 16.4733089 -2.12663609 16.92095176 -6 17 C-9.84624466 15.95102418 -10.73691641 15.39462539 -13 12 C-13.55335968 5.02766798 -13.55335968 5.02766798 -11.6875 1.5625 C-8.03286596 -1.82142041 -4.55473579 -1.03879939 0 0 Z " fill="#407173" transform="translate(143,112)"/>
<path d="M0 0 C1.9375 1.625 1.9375 1.625 3 4 C2.87988224 7.42335626 2.60726153 9.95416069 0.875 12.9375 C-2.22289358 14.69297303 -4.52844534 14.48723574 -8 14 C-10.5 11.9375 -10.5 11.9375 -12 9 C-12.0625 5.375 -12.0625 5.375 -11 2 C-7.37154796 -1.31744186 -4.6081237 -1.50264903 0 0 Z " fill="#3F7173" transform="translate(182,110)"/>
<path d="M0 0 C3.125 0.25 3.125 0.25 5 1.375 C6.63031294 4.09218824 6.45515665 6.14652746 6.125 9.25 C4.125 11.25 4.125 11.25 0.6875 11.6875 C-2.875 11.25 -2.875 11.25 -4.9375 9.0625 C-5.875 6.25 -5.875 6.25 -5.125 3.5 C-3.34200508 0.29060914 -3.34200508 0.29060914 0 0 Z " fill="#3F7072" transform="translate(137.875,92.75)"/>
<path d="M0 0 C2 2 2 2 2.1875 5 C2 8 2 8 1 10 C-2.30234829 10.95401173 -4.19469629 11.36026745 -7.375 9.9375 C-9 8 -9 8 -9.5 5 C-9 2 -9 2 -7.3125 0.0625 C-4.38550346 -1.28233625 -3.01415011 -1.03115662 0 0 Z " fill="#407173" transform="translate(176,86)"/>
<path d="M0 0 C1.98 0.66 3.96 1.32 6 2 C6.125 4.375 6.125 4.375 6 7 C5.34 7.66 4.68 8.32 4 9 C1.375 8.625 1.375 8.625 -1 8 C-1.625 5.6875 -1.625 5.6875 -2 3 C-1.34 2.01 -0.68 1.02 0 0 Z " fill="#407173" transform="translate(193,94)"/>
<path d="M0 0 C-0.33 2.31 -0.66 4.62 -1 7 C-2.8125 7.6875 -2.8125 7.6875 -5 8 C-6.8125 6.875 -6.8125 6.875 -8 5 C-7.8125 2.375 -7.8125 2.375 -7 0 C-4.3333581 -1.33332095 -2.83319697 -0.67102033 0 0 Z " fill="#3F7173" transform="translate(157,74)"/>
<path d="M0 0 C2.875 -0.125 2.875 -0.125 6 0 C6.66 0.66 7.32 1.32 8 2 C7.63318342 4.93453261 7.13562754 5.86437246 5 8 C2.375 7.625 2.375 7.625 0 7 C0 4.69 0 2.38 0 0 Z " fill="#407173" transform="translate(150,133)"/>
</svg>
