<?xml version="1.0" encoding="UTF-8"?>
<svg version="1.1" xmlns="http://www.w3.org/2000/svg" width="217" height="217">
<path d="M0 0 C71.61 0 143.22 0 217 0 C217 71.61 217 143.22 217 217 C145.39 217 73.78 217 0 217 C0 145.39 0 73.78 0 0 Z " fill="#E5EFEF" transform="translate(0,0)"/>
<path d="M0 0 C3.23381161 2.17472545 4.88898528 4.78409746 7 8 C10.78390215 10.85723224 14.72946688 12.95757111 19 15 C19.5775 15.33902344 20.155 15.67804687 20.75 16.02734375 C24.77587097 17.76769422 29.16524645 17.85855333 33.4921875 18.33984375 C38.51918868 19.28590522 42.61326489 21.18575592 46.25 24.8125 C46.72953125 25.27269531 47.2090625 25.73289062 47.703125 26.20703125 C52.0573009 32.22681059 51.28999551 39.52417502 51.265625 46.59765625 C51.26753845 47.82350937 51.2694519 49.04936249 51.27142334 50.31236267 C51.27278277 52.90542811 51.26910324 55.49850042 51.26074219 58.09155273 C51.25010392 62.02408523 51.26061273 65.95615416 51.2734375 69.88867188 C51.27211461 72.41666766 51.26954954 74.94466316 51.265625 77.47265625 C51.26967346 78.63354263 51.27372192 79.79442902 51.27789307 80.99049377 C51.23385323 88.82026267 50.39270094 96.29691452 49 104 C48.34 104 47.68 104 47 104 C46.90203125 104.6290625 46.8040625 105.258125 46.703125 105.90625 C44.43828847 118.8704867 38.85126159 125.27489105 28.23046875 133.01953125 C26.54162599 134.19405586 24.84221498 135.35364847 23.12890625 136.4921875 C20.99826526 137.89779911 20.99826526 137.89779911 19.4765625 139.60546875 C17.6699011 141.31176007 16.19187525 141.75948334 13.8125 142.4375 C10.69793464 143.39853713 7.88330272 144.48034345 5 146 C-1.43479109 149.31953508 -8.65428147 152.52732761 -16 151 C-20.78521567 149.23468842 -25.37154594 147.1446388 -30 145 C-30.64565918 144.74814941 -31.29131836 144.49629883 -31.95654297 144.23681641 C-33.66936254 143.56715244 -35.33922608 142.78995614 -37 142 C-37.33 141.01 -37.66 140.02 -38 139 C-39.134375 139.20625 -40.26875 139.4125 -41.4375 139.625 C-44.64604487 139.63065881 -45.7707201 139.19431173 -48.25390625 137.08984375 C-50.59273963 134.45814776 -52.79888198 131.74754942 -55 129 C-56.4101802 127.47315021 -57.82651813 125.95195628 -59.25 124.4375 C-67.49720514 115.11030371 -73.02378122 102.92076209 -73.22460938 90.43066406 C-73.24169449 89.45419922 -73.24169449 89.45419922 -73.25912476 88.45800781 C-73.36955042 81.66757892 -73.41715628 74.87609768 -73.45996094 68.08496094 C-73.48223132 64.86827206 -73.52399908 61.65274433 -73.58300781 58.43652344 C-73.65431442 54.54140485 -73.69082276 50.64737802 -73.70307922 46.75164032 C-73.71344024 45.27325886 -73.73577066 43.79490782 -73.77067566 42.31690216 C-74.06125537 29.34236601 -74.06125537 29.34236601 -69.74414062 24.17480469 C-63.32732719 17.90903958 -54.50807266 16.55941717 -46.05078125 14.7109375 C-39.67129964 13.22429774 -34.23420693 10.95757109 -29 7 C-28.67 6.34 -28.34 5.68 -28 5 C-26.00458132 4.31974363 -24.00382009 3.65509503 -22 3 C-21.28070313 2.49726563 -20.56140625 1.99453125 -19.8203125 1.4765625 C-14.07502045 -1.53136048 -6.27936993 -1.35888351 0 0 Z " fill="#E3EEEE" transform="translate(120,25)"/>
<path d="M0 0 C3.23381161 2.17472545 4.88898528 4.78409746 7 8 C10.78390215 10.85723224 14.72946688 12.95757111 19 15 C19.5775 15.33902344 20.155 15.67804687 20.75 16.02734375 C24.77587097 17.76769422 29.16524645 17.85855333 33.4921875 18.33984375 C38.51918868 19.28590522 42.61326489 21.18575592 46.25 24.8125 C46.72953125 25.27269531 47.2090625 25.73289062 47.703125 26.20703125 C52.0573009 32.22681059 51.28999551 39.52417502 51.265625 46.59765625 C51.26753845 47.82350937 51.2694519 49.04936249 51.27142334 50.31236267 C51.27278277 52.90542811 51.26910324 55.49850042 51.26074219 58.09155273 C51.25010392 62.02408523 51.26061273 65.95615416 51.2734375 69.88867188 C51.27211461 72.41666766 51.26954954 74.94466316 51.265625 77.47265625 C51.26967346 78.63354263 51.27372192 79.79442902 51.27789307 80.99049377 C51.23385323 88.82026267 50.39270094 96.29691452 49 104 C48.34 104 47.68 104 47 104 C46.90203125 104.6290625 46.8040625 105.258125 46.703125 105.90625 C44.43828847 118.8704867 38.85126159 125.27489105 28.23046875 133.01953125 C26.54162599 134.19405586 24.84221498 135.35364847 23.12890625 136.4921875 C20.99826526 137.89779911 20.99826526 137.89779911 19.4765625 139.60546875 C17.6699011 141.31176007 16.19187525 141.75948334 13.8125 142.4375 C10.69793464 143.39853713 7.88330272 144.48034345 5 146 C-1.43479109 149.31953508 -8.65428147 152.52732761 -16 151 C-20.78521567 149.23468842 -25.37154594 147.1446388 -30 145 C-30.64565918 144.74814941 -31.29131836 144.49629883 -31.95654297 144.23681641 C-33.66936254 143.56715244 -35.33922608 142.78995614 -37 142 C-37.33 141.01 -37.66 140.02 -38 139 C-39.134375 139.20625 -40.26875 139.4125 -41.4375 139.625 C-44.64604487 139.63065881 -45.7707201 139.19431173 -48.25390625 137.08984375 C-50.59273963 134.45814776 -52.79888198 131.74754942 -55 129 C-56.4101802 127.47315021 -57.82651813 125.95195628 -59.25 124.4375 C-67.49720514 115.11030371 -73.02378122 102.92076209 -73.22460938 90.43066406 C-73.24169449 89.45419922 -73.24169449 89.45419922 -73.25912476 88.45800781 C-73.36955042 81.66757892 -73.41715628 74.87609768 -73.45996094 68.08496094 C-73.48223132 64.86827206 -73.52399908 61.65274433 -73.58300781 58.43652344 C-73.65431442 54.54140485 -73.69082276 50.64737802 -73.70307922 46.75164032 C-73.71344024 45.27325886 -73.73577066 43.79490782 -73.77067566 42.31690216 C-74.06125537 29.34236601 -74.06125537 29.34236601 -69.74414062 24.17480469 C-63.32732719 17.90903958 -54.50807266 16.55941717 -46.05078125 14.7109375 C-39.67129964 13.22429774 -34.23420693 10.95757109 -29 7 C-28.67 6.34 -28.34 5.68 -28 5 C-26.00458132 4.31974363 -24.00382009 3.65509503 -22 3 C-21.28070313 2.49726563 -20.56140625 1.99453125 -19.8203125 1.4765625 C-14.07502045 -1.53136048 -6.27936993 -1.35888351 0 0 Z M-19.5625 16.8125 C-24.33302953 20.88000412 -28.41806219 22.31103715 -34.53125 23.4296875 C-37.16070042 23.80749846 -37.16070042 23.80749846 -39 26 C-44.62095159 28.47074795 -50.46091455 29.51673819 -56.51953125 30.27734375 C-59.69851444 31.20350421 -60.90759578 32.45166123 -63 35 C-63.57391071 37.4916564 -63.57391071 37.4916564 -63.45410156 40.22753906 C-63.45379944 41.26831604 -63.45349731 42.30909302 -63.45318604 43.38140869 C-63.43254089 44.49820007 -63.41189575 45.61499146 -63.390625 46.765625 C-63.38496521 47.91415955 -63.37930542 49.06269409 -63.37347412 50.24603271 C-63.35108331 53.91444574 -63.30087942 57.58188217 -63.25 61.25 C-63.22993861 63.73696506 -63.21168722 66.22394543 -63.1953125 68.7109375 C-63.15120955 74.80762489 -63.08426949 80.90374267 -63 87 C-62.34 87 -61.68 87 -61 87 C-61 91.29 -61 95.58 -61 100 C-60.34 100 -59.68 100 -59 100 C-58.67 101.98 -58.34 103.96 -58 106 C-57.34 106 -56.68 106 -56 106 C-55.67 107.98 -55.34 109.96 -55 112 C-54.34 112 -53.68 112 -53 112 C-53 112.66 -53 113.32 -53 114 C-52.278125 114.433125 -51.55625 114.86625 -50.8125 115.3125 C-47.6943089 117.18341466 -45.56404167 119.43595833 -43 122 C-42.175 122.495 -41.35 122.99 -40.5 123.5 C-38 125 -38 125 -35.9375 127.375 C-30.48490918 132.24752797 -23.16907129 134.78758353 -16 136 C-16 136.66 -16 137.32 -16 138 C-14.5629191 138.05422947 -13.12524538 138.09289723 -11.6875 138.125 C-10.88699219 138.14820313 -10.08648437 138.17140625 -9.26171875 138.1953125 C-6.71611424 138.15817322 -6.71611424 138.15817322 -4 136 C-2.4221875 135.62875 -2.4221875 135.62875 -0.8125 135.25 C3.13770171 134.19605963 5.79284927 132.09967815 8.95703125 129.578125 C10.94750309 128.04055211 12.97152667 126.73368585 15.125 125.4375 C24.68651973 119.5175747 29.81660365 112.24932105 34 102 C34.66 101.34 35.32 100.68 36 100 C36.60093545 97.4927478 37.11487653 95.03416461 37.5625 92.5 C38.88878676 85.22242647 38.88878676 85.22242647 40 83 C40.11009369 81.44360963 40.15908027 79.88268618 40.17700195 78.32250977 C40.18983719 77.35132706 40.20267242 76.38014435 40.21589661 75.37953186 C40.22328354 74.32745041 40.23067047 73.27536896 40.23828125 72.19140625 C40.25038887 70.57491432 40.25038887 70.57491432 40.26274109 68.92576599 C40.27658627 66.64347954 40.28730647 64.36117234 40.29516602 62.07885742 C40.31241289 58.58017106 40.35629993 55.08242113 40.40039062 51.58398438 C40.41051423 49.36979863 40.41903137 47.15560485 40.42578125 44.94140625 C40.45204338 43.36632042 40.45204338 43.36632042 40.47883606 41.75941467 C40.47591049 40.7850798 40.47298492 39.81074493 40.4699707 38.80688477 C40.47877007 37.52020653 40.47877007 37.52020653 40.48774719 36.20753479 C40.1800499 33.84109138 40.1800499 33.84109138 38.13713074 32.22276306 C35.42955377 30.6736182 33.48188596 30.6321795 30.375 30.5625 C24.22115749 30.18161897 19.52634982 28.64418652 14 26 C13.11957031 25.59265625 12.23914063 25.1853125 11.33203125 24.765625 C7.75298543 23.05275817 4.53617741 21.43155743 1.4375 18.9375 C-2.62546648 15.70796254 -7.32705993 13.37228743 -12.49609375 12.65234375 C-15.85003571 13.11802368 -17.11200045 14.51126946 -19.5625 16.8125 Z " fill="#066E67" transform="translate(120,25)"/>
<path d="M0 0 C5.21560804 1.2333502 10.74619522 3.94364537 14.5078125 7.79296875 C17.38375055 10.6011491 21.33692145 11.72561327 25 13.25 C26.18335938 13.79914062 26.18335938 13.79914062 27.390625 14.359375 C33.10976387 16.90531424 38.07702118 17.73853478 44.3359375 17.87890625 C47.49064373 18.3183448 48.70195587 19.07336872 51 21.25 C51.50120544 23.3835144 51.50120544 23.3835144 51.50170898 25.88232422 C51.51108994 26.82115448 51.52047089 27.75998474 51.53013611 28.7272644 C51.51890213 29.74281403 51.50766815 30.75836365 51.49609375 31.8046875 C51.49754898 32.8572171 51.49900421 33.9097467 51.50050354 34.99417114 C51.49884152 37.22856401 51.48724662 39.46296797 51.46655273 41.69726562 C51.43790401 45.07733397 51.44587733 48.45580312 51.45898438 51.8359375 C51.44422938 66.71255284 50.98538304 80.2367832 43 93.25 C42.18503429 94.74866178 41.37275718 96.24878731 40.5625 97.75 C35.73774779 106.38602097 29.44070114 111.30910177 21 116.25 C20.32066406 116.72566406 19.64132813 117.20132813 18.94140625 117.69140625 C14.31001384 120.93259993 10.50737387 122.98789349 5 124.25 C4.67 124.58 4.34 124.91 4 125.25 C2.48071962 125.32179964 0.95832518 125.33392007 -0.5625 125.3125 C-1.80193359 125.29896484 -1.80193359 125.29896484 -3.06640625 125.28515625 C-4.02353516 125.26775391 -4.02353516 125.26775391 -5 125.25 C-5 124.59 -5 123.93 -5 123.25 C-6.03833984 123.08564453 -6.03833984 123.08564453 -7.09765625 122.91796875 C-15.77937494 120.91988814 -23.12689071 116.85724796 -29 110.25 C-30.65948148 109.23812105 -32.32580562 108.2373454 -34 107.25 C-35.66666667 105.58333333 -37.33333333 103.91666667 -39 102.25 C-39.99 101.92 -40.98 101.59 -42 101.25 C-42 100.59 -42 99.93 -42 99.25 C-42.66 99.25 -43.32 99.25 -44 99.25 C-44.495 96.28 -44.495 96.28 -45 93.25 C-45.66 93.25 -46.32 93.25 -47 93.25 C-47.495 90.28 -47.495 90.28 -48 87.25 C-48.66 87.25 -49.32 87.25 -50 87.25 C-50 82.96 -50 78.67 -50 74.25 C-50.66 74.25 -51.32 74.25 -52 74.25 C-52.10135462 66.91776322 -52.17144649 59.58570683 -52.21972656 52.25292969 C-52.23985164 49.75806935 -52.26715452 47.26325622 -52.30175781 44.76855469 C-52.35023457 41.18412632 -52.3729602 37.60032115 -52.390625 34.015625 C-52.41127014 32.89883362 -52.43191528 31.78204224 -52.45318604 30.63140869 C-52.45348816 29.59063171 -52.45379028 28.54985474 -52.45410156 27.47753906 C-52.46298401 26.56264709 -52.47186646 25.64775513 -52.48101807 24.70513916 C-51.84560856 21.4619787 -50.5434883 20.29324326 -48 18.25 C-45.046875 17.30859375 -45.046875 17.30859375 -41.75 16.6875 C-36.53554445 15.60965165 -31.92407264 14.2530126 -27 12.25 C-25.62685965 11.72428341 -24.25182643 11.2034858 -22.875 10.6875 C-22.21113281 10.43355469 -21.54726562 10.17960937 -20.86328125 9.91796875 C-19 9.25 -19 9.25 -16.0625 8.5 C-12.90628726 7.2117499 -11.18449823 5.77198138 -8.625 3.5625 C-3.79091691 -0.30961672 -3.79091691 -0.30961672 0 0 Z M-6 7.25 C-6.33 8.24 -6.66 9.23 -7 10.25 C-8.97395523 10.99023321 -10.98271862 11.63761101 -13 12.25 C-17.21477519 13.98042729 -21.20278763 15.71852509 -25 18.25 C-25 18.91 -25 19.57 -25 20.25 C-25.94875 20.37375 -26.8975 20.4975 -27.875 20.625 C-31.08667191 20.96687177 -31.08667191 20.96687177 -33 23.25 C-35.56640625 23.62890625 -35.56640625 23.62890625 -38.5625 23.8125 C-42.09416808 23.74797212 -42.09416808 23.74797212 -45 25.25 C-45.09783656 26.58484238 -45.12797969 27.92476133 -45.12939453 29.26318359 C-45.13254669 30.11431732 -45.13569885 30.96545105 -45.13894653 31.84237671 C-45.1369223 32.76837677 -45.13489807 33.69437683 -45.1328125 34.6484375 C-45.13376923 35.59433746 -45.13472595 36.54023743 -45.13571167 37.51480103 C-45.1363937 39.52061021 -45.13453783 41.52642159 -45.13037109 43.53222656 C-45.12503496 46.60486825 -45.13030921 49.67736296 -45.13671875 52.75 C-45.13605774 54.69531282 -45.1347761 56.64062556 -45.1328125 58.5859375 C-45.13483673 59.5078891 -45.13686096 60.4298407 -45.13894653 61.37973022 C-45.13579437 62.23716827 -45.13264221 63.09460632 -45.12939453 63.97802734 C-45.12859894 64.73223969 -45.12780334 65.48645203 -45.12698364 66.26351929 C-45.07128818 68.46124149 -45.07128818 68.46124149 -44 71.25 C-43.74101721 74.67792492 -43.55758845 78.09994315 -43.39453125 81.53320312 C-43.25968513 85.52142972 -43.25968513 85.52142972 -42 89.25 C-41.34 89.25 -40.68 89.25 -40 89.25 C-39.773125 90.260625 -39.54625 91.27125 -39.3125 92.3125 C-38.079247 96.54695611 -36.2123239 100.17696386 -33 103.25 C-29.83000856 104.29617091 -29.83000856 104.29617091 -27 104.25 C-27 104.91 -27 105.57 -27 106.25 C-23.95848214 109.6391199 -20.97687723 112.06271752 -17 114.25 C-16.21625 114.78625 -15.4325 115.3225 -14.625 115.875 C-11.4323166 117.54735797 -8.55649484 117.83963521 -5 118.25 C-4.67 118.58 -4.34 118.91 -4 119.25 C-1 119.41666667 -1 119.41666667 2 119.25 C2.33 118.92 2.66 118.59 3 118.25 C4.35163027 118.1169073 5.70677373 118.01889008 7.0625 117.9375 C11.33718995 117.51003101 14.43746181 116.35184578 18.16796875 114.26953125 C20 113.25 20 113.25 23 112.0625 C31.90300344 106.68360209 38.70626085 96.05071405 42 86.25 C42.82206557 81.95395323 42.96429602 77.68405122 42.96484375 73.3203125 C43 70.25 43 70.25 44 69.25 C44.0928726 67.83774954 44.11746772 66.42091066 44.11352539 65.00561523 C44.11344986 64.10475693 44.11337433 63.20389862 44.11329651 62.27574158 C44.10813522 61.29658279 44.10297394 60.31742401 44.09765625 59.30859375 C44.0962413 58.31118668 44.09482635 57.3137796 44.09336853 56.28614807 C44.08775114 53.08656876 44.07519571 49.88705831 44.0625 46.6875 C44.05748724 44.52408955 44.05292395 42.36067801 44.04882812 40.19726562 C44.03777607 34.88148675 44.02102104 29.56574829 44 24.25 C43.2378418 24.19521484 42.47568359 24.14042969 41.69042969 24.08398438 C40.19624512 23.96506836 40.19624512 23.96506836 38.671875 23.84375 C37.6828418 23.76833984 36.69380859 23.69292969 35.67480469 23.61523438 C32.51062894 23.18317825 30.63476029 22.00650686 28 20.25 C26.783125 20.105625 25.56625 19.96125 24.3125 19.8125 C23.219375 19.626875 22.12625 19.44125 21 19.25 C19.9375 17.3125 19.9375 17.3125 19 15.25 C17.6078125 14.816875 17.6078125 14.816875 16.1875 14.375 C13 13.25 13 13.25 11 10.125 C9.88673563 8.40364651 9.88673563 8.40364651 8 7.25 C3.29570436 6.71359229 -1.28525259 6.9054853 -6 7.25 Z " fill="#C6DBDA" transform="translate(109,37.75)"/>
<path d="M0 0 C2.0625 0.25 2.0625 0.25 4 1 C4.495 1.99 4.495 1.99 5 3 C6.93331809 3.15209159 8.87341284 3.22186331 10.8125 3.25 C16.658213 3.61752407 16.658213 3.61752407 19.625 6.9375 C20.305625 8.4534375 20.305625 8.4534375 21 10 C22.90217203 12.20031442 22.90217203 12.20031442 25.8125 12.9375 C28.91990597 13.97330199 31.23512048 15.2719503 34 17 C39.58179999 20.16543636 44.55285267 20.73064308 50.85546875 21.375 C54.13380577 22.02659493 54.95063342 22.51195112 57 25 C57.78375 25.2475 58.5675 25.495 59.375 25.75 C64.16465025 28.03078583 66.97209484 33.20782052 69 38 C69.26069641 40.64013672 69.26069641 40.64013672 69.2746582 43.6796875 C69.28419022 44.82187744 69.29372223 45.96406738 69.30354309 47.14086914 C69.30217598 48.98926392 69.30217598 48.98926392 69.30078125 50.875 C69.30506638 52.15044678 69.3093515 53.42589355 69.31376648 54.73999023 C69.31951331 57.44349894 69.32094293 60.1466265 69.31567383 62.85009766 C69.30992131 66.2815235 69.32670801 69.71240213 69.3500185 73.14373779 C69.36849106 76.45001211 69.36456581 79.75617468 69.36328125 83.0625 C69.372491 84.27856934 69.38170074 85.49463867 69.39118958 86.74755859 C69.3294548 98.31796258 66.6903838 108.47194427 62 119 C61.64164062 119.845625 61.28328125 120.69125 60.9140625 121.5625 C57.99059315 127.99805669 54.192545 132.27277471 49 137 C47.6696875 138.36125 47.6696875 138.36125 46.3125 139.75 C42.51900665 143.4409665 38.58182182 146.36545246 34 149 C31.28611187 150.6154096 28.62878272 152.24747819 26 154 C24.47219594 154.56019482 22.92882451 155.07914417 21.375 155.5625 C18.42831448 156.338786 18.42831448 156.338786 16 158 C13.66702567 158.04092937 11.33294775 158.04241723 9 158 C9 158.66 9 159.32 9 160 C2.92417153 161.4529155 -2.32416361 160.74005895 -8 158 C-8.33 157.01 -8.66 156.02 -9 155 C-9.66386719 154.96261719 -10.32773438 154.92523438 -11.01171875 154.88671875 C-17.28522218 154.41964039 -21.42033733 153.75164018 -25.875 149 C-28.60858649 146.42721271 -31.55700575 145.4397976 -35 144 C-36.9375 142.4375 -36.9375 142.4375 -38 141 C-38 140.34 -38 139.68 -38 139 C-38.8353125 138.6596875 -38.8353125 138.6596875 -39.6875 138.3125 C-44.92545102 135.33960888 -49.0569575 130.22189643 -52 125 C-52.8125 121.5625 -52.8125 121.5625 -53 119 C-53.66 119 -54.32 119 -55 119 C-64.42356507 103.55599379 -62.99416301 86.21091365 -62.77209473 68.79138184 C-62.74247684 65.55223219 -62.75782738 62.3139119 -62.77334213 59.07471275 C-62.78365966 55.93459298 -62.76919801 52.79496967 -62.74695587 49.6549263 C-62.7386473 48.16471184 -62.73706669 46.67444287 -62.74260712 45.18421555 C-62.76548629 30.79400738 -62.76548629 30.79400738 -57 25 C-51.18760306 20.83981262 -44.62479375 20.0473203 -37.70703125 18.78515625 C-32.12717774 17.60333269 -26.96620448 15.64661641 -21.98046875 12.87890625 C-20 12 -20 12 -16 12 C-15.979375 11.4225 -15.95875 10.845 -15.9375 10.25 C-14.46031238 6.7047497 -11.33568318 5.52488374 -8 4 C-6.00379834 3.32204472 -4.00461299 2.65266469 -2 2 C-1.34 1.34 -0.68 0.68 0 0 Z M-7 8 C-8.03125 8.309375 -9.0625 8.61875 -10.125 8.9375 C-13.4198338 10.15515597 -14.04443977 11.19419619 -16 14 C-21.68651693 18.30796737 -29.10364653 19.6994145 -36 20.9375 C-39.48667654 21.62169869 -42.82801505 22.46112398 -46.1875 23.625 C-47.32251953 24.01558594 -47.32251953 24.01558594 -48.48046875 24.4140625 C-52.59770695 27.00568841 -55.56866484 29.73888508 -58 34 C-58.99075029 39.1056502 -58.8908969 44.13198152 -58.7890625 49.3046875 C-58.78360842 50.79386678 -58.78083846 52.28305806 -58.78060913 53.77224731 C-58.77290758 56.88441186 -58.74209467 59.9951535 -58.69287109 63.10693359 C-58.63071819 67.06989194 -58.61203272 71.03148711 -58.60907936 74.9948864 C-58.60434731 78.06817636 -58.58347707 81.14118424 -58.55720139 84.21435928 C-58.5452485 85.67418268 -58.53648638 87.13403621 -58.531147 88.59389877 C-58.42115111 108.42459162 -51.69021523 122.45299206 -37.6875 136.375 C-36.42486328 137.59316406 -36.42486328 137.59316406 -35.13671875 138.8359375 C-33 141 -33 141 -31 144 C-29.02252878 144.36297936 -29.02252878 144.36297936 -26.875 144.1875 C-25.59625 144.125625 -24.3175 144.06375 -23 144 C-22.80921875 144.60714844 -22.6184375 145.21429688 -22.421875 145.83984375 C-20.31485214 149.04089771 -17.84879921 149.41225089 -14.25 150.5625 C-10.60357476 151.74564862 -7.20750167 152.89486246 -3.78515625 154.62890625 C1.39742022 157.18021669 6.18628357 156.41453768 11.5 154.75 C15.11658985 153.43319036 18.49807494 151.82235586 21.8984375 150.02734375 C24.23781609 148.88374418 26.61626834 148.01554657 29.0625 147.125 C33.19414802 145.51018795 36.06833912 143.57958475 39.29296875 140.56640625 C41.09028588 138.91715185 42.96614657 137.49795153 44.9375 136.0625 C55.53203833 128.14751416 59.73639702 122.23541978 62 109 C62.66 109 63.32 109 64 109 C65.60181408 100.1100149 66.30788682 91.53392417 66.30078125 82.5078125 C66.30720894 80.66254471 66.30720894 80.66254471 66.31376648 78.77999878 C66.31946517 76.20359916 66.32004335 73.62718347 66.31567383 71.05078125 C66.31249136 67.11430732 66.33610746 63.1785701 66.36132812 59.2421875 C66.36359936 56.72656344 66.36430543 54.21093738 66.36328125 51.6953125 C66.372491 50.52541779 66.38170074 49.35552307 66.39118958 48.150177 C66.34922273 40.74765896 65.83153961 34.35336055 60.4375 28.75 C54.35093889 23.12703445 45.34075302 22.5924988 37.46875 21.52734375 C35 21 35 21 33 19 C31.948125 18.62875 31.948125 18.62875 30.875 18.25 C25.51880416 15.9212192 21.13487033 12.62038704 17.78125 7.83203125 C14.81013871 4.7692343 14.81013871 4.7692343 10.96875 4.30859375 C9.47859432 4.32046225 7.98840093 4.36423674 6.5 4.4375 C5.75363281 4.43943359 5.00726563 4.44136719 4.23828125 4.44335938 C-0.36701057 4.55339732 -3.15188336 5.29103703 -7 8 Z " fill="#ADCBC9" transform="translate(105,20)"/>
<path d="M0 0 C2.61602267 1.75926485 3.92147648 3.34632892 5.64453125 5.9609375 C7.05238535 8.07880448 8.22639387 9.06279765 10.375 10.375 C13 12 13 12 14 14 C13.484375 13.731875 12.96875 13.46375 12.4375 13.1875 C9.8571757 11.89074667 9.8571757 11.89074667 6.5 10.625 C3.09983008 9.04634968 1.58844336 7.58844336 -1 5 C-5.77607226 2.82905806 -9.84673703 2.5776014 -15 3 C-16.02279443 3.97667372 -17.02149805 4.97895449 -18 6 C-20.015625 6.95703125 -20.015625 6.95703125 -22.25 7.8125 C-25.54407943 9.19611979 -27.94611266 10.63256785 -30.5625 13.0625 C-33.48403572 15.75410004 -36.13202573 17.08754288 -39.91015625 18.26171875 C-42.16722106 18.99078647 -42.16722106 18.99078647 -44.70703125 20.53125 C-49.36267381 22.60778808 -53.85253956 22.6957899 -58.8984375 22.90820312 C-61.07431832 23.07988167 -62.93284891 23.29415703 -65 24 C-68.70957713 28.35139286 -70.1240876 32.10090545 -70.12939453 37.73999023 C-70.13254669 38.70206894 -70.13569885 39.66414764 -70.13894653 40.65538025 C-70.1369223 41.6959407 -70.13489807 42.73650116 -70.1328125 43.80859375 C-70.13424759 45.42423973 -70.13424759 45.42423973 -70.13571167 47.07252502 C-70.13639296 49.35816506 -70.13454226 51.64380703 -70.13037109 53.92944336 C-70.12506896 57.39246096 -70.13029341 60.85534607 -70.13671875 64.31835938 C-70.13605704 66.54427112 -70.13477397 68.77018278 -70.1328125 70.99609375 C-70.13483673 72.01843613 -70.13686096 73.0407785 -70.13894653 74.09410095 C-70.53186314 87.79328793 -70.53186314 87.79328793 -66.5625 100.5625 C-66.13066406 101.34753906 -65.69882813 102.13257812 -65.25390625 102.94140625 C-64.21093977 104.65369078 -63.11212858 106.33180714 -62 108 C-61.7525 109.051875 -61.505 110.10375 -61.25 111.1875 C-58.83414282 119.93583131 -50.70296179 127.32516167 -44 133 C-41.67356117 134.31746848 -39.41407063 135.3280113 -36.91796875 136.2734375 C-34.56778709 137.16373035 -32.78069887 138.21930113 -31 140 C-31 140.99 -31 141.98 -31 143 C-30.06027344 143.03867187 -30.06027344 143.03867187 -29.1015625 143.078125 C-28.28429687 143.13484375 -27.46703125 143.1915625 -26.625 143.25 C-25.81289062 143.29640625 -25.00078125 143.3428125 -24.1640625 143.390625 C-22 144 -22 144 -20.7109375 146.046875 C-20.47632813 146.69140625 -20.24171875 147.3359375 -20 148 C-9.05156601 148.6149176 -9.05156601 148.6149176 1 145 C1.66 144.34 2.32 143.68 3 143 C4.546875 142.38125 4.546875 142.38125 6.125 141.75 C9.90510109 140.20821964 12.78160018 137.97213326 15.97265625 135.4609375 C17.90256231 134.07021521 19.70422308 133.13967177 21.875 132.1875 C30.78717833 127.99560585 38.14631236 119.75547423 42.75 111.1875 C43.17796875 110.39730469 43.6059375 109.60710937 44.046875 108.79296875 C44.36140625 108.20128906 44.6759375 107.60960937 45 107 C46 109 46 109 45.546875 110.98828125 C41.33129832 123.28371325 33.8720136 128.83073794 23.41796875 136.203125 C21.04237786 137.86151779 21.04237786 137.86151779 19.4375 139.64453125 C17.65431598 141.32595749 16.15960496 141.76867894 13.8125 142.4375 C10.69793464 143.39853713 7.88330272 144.48034345 5 146 C-1.43479109 149.31953508 -8.65428147 152.52732761 -16 151 C-20.78521567 149.23468842 -25.37154594 147.1446388 -30 145 C-30.64565918 144.74814941 -31.29131836 144.49629883 -31.95654297 144.23681641 C-33.66936254 143.56715244 -35.33922608 142.78995614 -37 142 C-37.33 141.01 -37.66 140.02 -38 139 C-39.134375 139.20625 -40.26875 139.4125 -41.4375 139.625 C-44.64604487 139.63065881 -45.7707201 139.19431173 -48.25390625 137.08984375 C-50.59273963 134.45814776 -52.79888198 131.74754942 -55 129 C-56.4101802 127.47315021 -57.82651813 125.95195628 -59.25 124.4375 C-67.49720514 115.11030371 -73.02378122 102.92076209 -73.22460938 90.43066406 C-73.24169449 89.45419922 -73.24169449 89.45419922 -73.25912476 88.45800781 C-73.36955042 81.66757892 -73.41715628 74.87609768 -73.45996094 68.08496094 C-73.48223132 64.86827206 -73.52399908 61.65274433 -73.58300781 58.43652344 C-73.65431442 54.54140485 -73.69082276 50.64737802 -73.70307922 46.75164032 C-73.71344024 45.27325886 -73.73577066 43.79490782 -73.77067566 42.31690216 C-74.06125537 29.34236601 -74.06125537 29.34236601 -69.74414062 24.17480469 C-63.32732719 17.90903958 -54.50807266 16.55941717 -46.05078125 14.7109375 C-39.67129964 13.22429774 -34.23420693 10.95757109 -29 7 C-28.67 6.34 -28.34 5.68 -28 5 C-26.00458132 4.31974363 -24.00382009 3.65509503 -22 3 C-21.28070313 2.49726563 -20.56140625 1.99453125 -19.8203125 1.4765625 C-14.07502045 -1.53136048 -6.27936993 -1.35888351 0 0 Z " fill="#529590" transform="translate(120,25)"/>
<path d="M0 0 C5.21560804 1.2333502 10.74619522 3.94364537 14.5078125 7.79296875 C17.38375055 10.6011491 21.33692145 11.72561327 25 13.25 C26.18335938 13.79914062 26.18335938 13.79914062 27.390625 14.359375 C33.10976387 16.90531424 38.07702118 17.73853478 44.3359375 17.87890625 C47.49064373 18.3183448 48.70195587 19.07336872 51 21.25 C51.50120544 23.3835144 51.50120544 23.3835144 51.50170898 25.88232422 C51.51108994 26.82115448 51.52047089 27.75998474 51.53013611 28.7272644 C51.51890213 29.74281403 51.50766815 30.75836365 51.49609375 31.8046875 C51.49754898 32.8572171 51.49900421 33.9097467 51.50050354 34.99417114 C51.49884152 37.22856401 51.48724662 39.46296797 51.46655273 41.69726562 C51.43790401 45.07733397 51.44587733 48.45580312 51.45898438 51.8359375 C51.42881925 82.24971087 51.42881925 82.24971087 42 93.25 C42.75 88.5 42.75 88.5 45 86.25 C47.79510502 73.20170798 47.42684852 59.52202106 47.625 46.25 C47.66328379 44.10675678 47.70234108 41.96352724 47.7421875 39.8203125 C47.83702512 34.63032249 47.92145643 29.44026111 48 24.25 C44.35822826 22.73741126 41.09536804 21.82363201 37.1875 21.25 C27.19447743 19.64815914 27.19447743 19.64815914 23 18.25 C21.8125 16.1875 21.8125 16.1875 21 14.25 C20.23171875 14.11722656 19.4634375 13.98445313 18.671875 13.84765625 C15.4891992 13.13574193 14.60790377 12.11947883 12.4375 9.75 C8.16634591 5.79552843 4.5213488 5.33306068 -1.16796875 5.02734375 C-4.19631523 5.26543444 -6.29677639 5.87974528 -9 7.25 C-9.680625 8.054375 -10.36125 8.85875 -11.0625 9.6875 C-14.83670831 12.97989449 -18.23095469 13.56970104 -23.0625 14.57421875 C-25.86839135 15.21972301 -28.3615795 16.11024115 -31 17.25 C-31 17.91 -31 18.57 -31 19.25 C-31.97582031 19.45496094 -32.95164062 19.65992187 -33.95703125 19.87109375 C-35.22933594 20.14050781 -36.50164062 20.40992187 -37.8125 20.6875 C-39.07707031 20.95433594 -40.34164062 21.22117187 -41.64453125 21.49609375 C-44.97045413 22.18427886 -44.97045413 22.18427886 -48 23.25 C-48.02534939 29.87027163 -48.04286664 36.49053076 -48.05493164 43.11083984 C-48.05996123 45.36312325 -48.06678566 47.61540339 -48.07543945 49.86767578 C-48.08756506 53.10450039 -48.09324206 56.34128183 -48.09765625 59.578125 C-48.10281754 60.58554749 -48.10797882 61.59296997 -48.11329651 62.63092041 C-48.11337204 63.57159363 -48.11344757 64.51226685 -48.11352539 65.48144531 C-48.115746 66.30751282 -48.11796661 67.13358032 -48.12025452 67.98468018 C-48.00225464 70.20752768 -47.59178854 72.1111051 -47 74.25 C-46.86070644 75.61676632 -46.75634699 76.9874567 -46.68359375 78.359375 C-46.64169922 79.11347656 -46.59980469 79.86757812 -46.55664062 80.64453125 C-46.51732422 81.42183594 -46.47800781 82.19914062 -46.4375 83 C-46.39431641 83.79277344 -46.35113281 84.58554688 -46.30664062 85.40234375 C-46.20097009 87.35137815 -46.10002034 89.30066748 -46 91.25 C-45.34 91.25 -44.68 91.25 -44 91.25 C-43.34 93.23 -42.68 95.21 -42 97.25 C-41.34 97.25 -40.68 97.25 -40 97.25 C-38.5546875 98.7890625 -38.5546875 98.7890625 -36.875 100.875 C-33.81484016 104.49097175 -30.63460511 107.21298526 -26.77734375 109.9375 C-25 111.25 -25 111.25 -22.875 113.5 C-20.48312985 115.73241214 -18.08993807 116.28868593 -15 117.25 C-14.67 117.91 -14.34 118.57 -14 119.25 C-19.81418424 117.77707333 -23.65247296 116.16237881 -27.66796875 111.66015625 C-29.50470451 109.71569405 -31.70591099 108.60292429 -34 107.25 C-35.66666667 105.58333333 -37.33333333 103.91666667 -39 102.25 C-39.99 101.92 -40.98 101.59 -42 101.25 C-42 100.59 -42 99.93 -42 99.25 C-42.66 99.25 -43.32 99.25 -44 99.25 C-44.495 96.28 -44.495 96.28 -45 93.25 C-45.66 93.25 -46.32 93.25 -47 93.25 C-47.495 90.28 -47.495 90.28 -48 87.25 C-48.66 87.25 -49.32 87.25 -50 87.25 C-50 82.96 -50 78.67 -50 74.25 C-50.66 74.25 -51.32 74.25 -52 74.25 C-52.10135462 66.91776322 -52.17144649 59.58570683 -52.21972656 52.25292969 C-52.23985164 49.75806935 -52.26715452 47.26325622 -52.30175781 44.76855469 C-52.35023457 41.18412632 -52.3729602 37.60032115 -52.390625 34.015625 C-52.41127014 32.89883362 -52.43191528 31.78204224 -52.45318604 30.63140869 C-52.45348816 29.59063171 -52.45379028 28.54985474 -52.45410156 27.47753906 C-52.46298401 26.56264709 -52.47186646 25.64775513 -52.48101807 24.70513916 C-51.84560856 21.4619787 -50.5434883 20.29324326 -48 18.25 C-45.046875 17.30859375 -45.046875 17.30859375 -41.75 16.6875 C-36.53554445 15.60965165 -31.92407264 14.2530126 -27 12.25 C-25.62685965 11.72428341 -24.25182643 11.2034858 -22.875 10.6875 C-22.21113281 10.43355469 -21.54726562 10.17960937 -20.86328125 9.91796875 C-19 9.25 -19 9.25 -16.0625 8.5 C-12.90628726 7.2117499 -11.18449823 5.77198138 -8.625 3.5625 C-3.79091691 -0.30961672 -3.79091691 -0.30961672 0 0 Z " fill="#649D98" transform="translate(109,37.75)"/>
<path d="M0 0 C2.1875 0.0625 2.1875 0.0625 5 1 C6.98331065 3.141074 8.51944527 5.49084936 10 8 C10.3472966 8.58177002 10.6945932 9.16354004 11.05241394 9.76293945 C12.22594259 12.53340513 12.26084456 14.67238916 12.2746582 17.6796875 C12.28419022 18.82187744 12.29372223 19.96406738 12.30354309 21.14086914 C12.30263168 22.37313232 12.30172028 23.60539551 12.30078125 24.875 C12.30506638 26.15044678 12.3093515 27.42589355 12.31376648 28.73999023 C12.31951331 31.44349894 12.32094293 34.1466265 12.31567383 36.85009766 C12.30992131 40.2815235 12.32670801 43.71240213 12.3500185 47.14373779 C12.36849106 50.45001211 12.36456581 53.75617468 12.36328125 57.0625 C12.372491 58.27856934 12.38170074 59.49463867 12.39118958 60.74755859 C12.3294548 72.31796258 9.6903838 82.47194427 5 93 C4.64164062 93.845625 4.28328125 94.69125 3.9140625 95.5625 C0.99059315 101.99805669 -2.807455 106.27277471 -8 111 C-9.3303125 112.36125 -9.3303125 112.36125 -10.6875 113.75 C-14.48099335 117.4409665 -18.41817818 120.36545246 -23 123 C-25.71388813 124.6154096 -28.37121728 126.24747819 -31 128 C-32.52780406 128.56019482 -34.07117549 129.07914417 -35.625 129.5625 C-38.57168552 130.338786 -38.57168552 130.338786 -41 132 C-43.33297433 132.04092937 -45.66705225 132.04241723 -48 132 C-48 132.66 -48 133.32 -48 134 C-54.07582847 135.4529155 -59.32416361 134.74005895 -65 132 C-65.33 131.01 -65.66 130.02 -66 129 C-68.66713467 128.18971289 -68.66713467 128.18971289 -71.8125 127.6875 C-78.60932588 126.16811443 -78.60932588 126.16811443 -80.75 122.9375 C-82 120 -82 120 -82 118 C-81.34 118 -80.68 118 -80 118 C-79.41992188 118.61746094 -78.83984375 119.23492187 -78.2421875 119.87109375 C-75.61379277 122.36669502 -73.5817473 123.04658572 -70.125 124.0625 C-66.73584666 125.10058208 -63.88104854 126.06405079 -60.75 127.75 C-54.72350015 130.48931811 -49.16357785 129.08391809 -43.21484375 126.91796875 C-40.42799079 125.76292387 -37.7682839 124.43507516 -35.1015625 123.02734375 C-32.76218391 121.88374418 -30.38373166 121.01554657 -27.9375 120.125 C-23.80791153 118.5109929 -20.93421945 116.58173554 -17.7109375 113.5703125 C-15.89218049 111.90104237 -13.99166035 110.45749857 -12 109 C-10.66511307 108.00207482 -9.33176183 107.00209191 -8 106 C-7.35417969 105.51660156 -6.70835937 105.03320312 -6.04296875 104.53515625 C1.0133238 98.93468827 2.6228675 91.37897058 5 83 C5.66 83 6.32 83 7 83 C7.78977983 74.15672113 8.1705394 65.38476445 8.203125 56.5078125 C8.20882507 55.27763397 8.21452515 54.04745544 8.22039795 52.77999878 C8.22976957 50.2036015 8.23635034 47.62719265 8.24023438 45.05078125 C8.25002643 41.11437521 8.28115858 37.17847342 8.3125 33.2421875 C8.31902353 30.72656557 8.32427654 28.21093995 8.328125 25.6953125 C8.3466452 23.94047043 8.3466452 23.94047043 8.36553955 22.150177 C8.34451335 14.45254165 7.66488326 8.49351929 2.3125 2.5625 C1.549375 1.716875 0.78625 0.87125 0 0 Z " fill="#B8D2D0" transform="translate(162,46)"/>
<path d="M0 0 C0.99 0.33 1.98 0.66 3 1 C3.05004653 7.25812664 3.08602039 13.51613263 3.10986328 19.77441406 C3.1198201 21.89617954 3.13339042 24.01793167 3.15087891 26.13964844 C3.42517153 60.31328293 3.42517153 60.31328293 -0.56201172 64.73046875 C-1.03654785 65.14941406 -1.51108398 65.56835938 -2 66 C-2.061875 66.99 -2.12375 67.98 -2.1875 69 C-2.89698396 75.6833389 -8.33341822 81.58249454 -13.1328125 85.93359375 C-16.590428 88.56953256 -20.24985933 90.80479571 -24 93 C-24.67933594 93.47566406 -25.35867187 93.95132813 -26.05859375 94.44140625 C-30.68998616 97.68259993 -34.49262613 99.73789349 -40 101 C-40.33 101.33 -40.66 101.66 -41 102 C-42.51928038 102.07179964 -44.04167482 102.08392007 -45.5625 102.0625 C-46.80193359 102.04896484 -46.80193359 102.04896484 -48.06640625 102.03515625 C-49.02353516 102.01775391 -49.02353516 102.01775391 -50 102 C-50 101.34 -50 100.68 -50 100 C-51.11375 99.814375 -51.11375 99.814375 -52.25 99.625 C-54.80141485 99.04513299 -56.7267573 98.26291261 -59 97 C-57.4375 96.3125 -57.4375 96.3125 -55 96 C-52.66443537 96.99477753 -50.33124929 97.99515117 -48 99 C-43.81389189 99.4025104 -42.55008317 99.36672211 -39 97 C-38.05125 96.690625 -37.1025 96.38125 -36.125 96.0625 C-33.057211 95.01945174 -30.71793358 93.74226512 -28 92 C-27.236875 91.5875 -26.47375 91.175 -25.6875 90.75 C-15.07347911 83.83854454 -9.32013318 74.27868234 -4 63 C-3.01 63 -2.02 63 -1 63 C0.21829141 56.36052259 0.1268941 49.80078189 0.09765625 43.06640625 C0.09553383 41.21679543 0.09553383 41.21679543 0.09336853 39.32981873 C0.08778941 35.40735405 0.07524068 31.48494731 0.0625 27.5625 C0.05691698 24.89648521 0.05291987 22.23047096 0.04882812 19.56445312 C0.03782681 13.04294912 0.02110945 6.5214787 0 0 Z " fill="#A6C7C4" transform="translate(154,61)"/>
<path d="M0 0 C0.33 0 0.66 0 1 0 C1.36202876 11.3033424 1.36202876 11.3033424 -1 17 C-1.144375 17.7425 -1.28875 18.485 -1.4375 19.25 C-2 21 -2 21 -5 23 C-5.103125 24.051875 -5.20625 25.10375 -5.3125 26.1875 C-6.20402783 31.13142707 -8.2768717 33.71539258 -12 37 C-14 38 -16 39 -18 40 C-18.33 40.845625 -18.66 41.69125 -19 42.5625 C-19.33 43.366875 -19.66 44.17125 -20 45 C-23 46.1875 -23 46.1875 -26 47 C-26.66 47.66 -27.32 48.32 -28 49 C-30 49.66666667 -32 50.33333333 -34 51 C-35.69514137 51.95093297 -37.36368108 52.95107762 -39 54 C-39.9075 54.53625 -40.815 55.0725 -41.75 55.625 C-43.89036142 56.81214791 -43.89036142 56.81214791 -45 58 C-47.12119924 58.15193163 -49.24855315 58.22183514 -51.375 58.25 C-52.53773437 58.27578125 -53.70046875 58.3015625 -54.8984375 58.328125 C-58 58 -58 58 -59.76171875 56.578125 C-60.17035156 56.05734375 -60.57898438 55.5365625 -61 55 C-62.65532623 53.98133771 -64.32260138 52.98189187 -66 52 C-67.33333333 51 -68.66666667 50 -70 49 C-70.804375 48.54625 -71.60875 48.0925 -72.4375 47.625 C-75.3907839 45.75218582 -77.53187302 43.46812698 -80 41 C-80.825 40.505 -81.65 40.01 -82.5 39.5 C-85.47541372 37.71475177 -87.62402504 35.51174496 -90 33 C-89.67 32.34 -89.34 31.68 -89 31 C-88.55269531 31.47050781 -88.10539062 31.94101563 -87.64453125 32.42578125 C-84.27492872 35.89596893 -81.20123464 38.56770626 -77 41 C-76.319375 41.78375 -75.63875 42.5675 -74.9375 43.375 C-70.56210987 47.28492309 -65.43578836 48.93989404 -60 51 C-58.33224166 51.66393097 -56.66518485 52.32964066 -55 53 C-55 53.66 -55 54.32 -55 55 C-53.56163249 54.88541307 -52.12429034 54.75790884 -50.6875 54.625 C-49.48673828 54.52058594 -49.48673828 54.52058594 -48.26171875 54.4140625 C-45.72775559 54.10435574 -45.72775559 54.10435574 -43 52 C-41.948125 51.7525 -40.89625 51.505 -39.8125 51.25 C-35.86417671 50.1965608 -33.21012465 48.10159638 -30.046875 45.58203125 C-28.03489918 44.0269736 -25.984886 42.69394864 -23.8125 41.375 C-14.69394479 35.72256227 -10.011768 28.82883161 -6 19 C-5.34 18.34 -4.68 17.68 -4 17 C-3.39906455 14.4927478 -2.88512347 12.03416461 -2.4375 9.5 C-1.11121324 2.22242647 -1.11121324 2.22242647 0 0 Z " fill="#398680" transform="translate(159,108)"/>
<path d="M0 0 C0.33 0.99 0.66 1.98 1 3 C0.67 3.33 0.34 3.66 0 4 C-0.0994776 6.0902011 -0.12799635 8.1838007 -0.12939453 10.27636719 C-0.13114685 10.93172455 -0.13289917 11.58708191 -0.13470459 12.26229858 C-0.13912469 14.44051726 -0.13618324 16.61865542 -0.1328125 18.796875 C-0.13348582 20.30804459 -0.13445608 21.81921408 -0.13571167 23.3303833 C-0.13718912 26.50477118 -0.13503379 29.679131 -0.13037109 32.85351562 C-0.12469321 36.91665273 -0.12794014 40.9797235 -0.13394356 45.04285812 C-0.13756453 48.1673024 -0.13640318 51.29173108 -0.13381577 54.41617584 C-0.13314974 55.91364805 -0.13396359 57.41112168 -0.13629532 58.90859222 C-0.13884487 61.00778423 -0.13494801 63.10687051 -0.12939453 65.20605469 C-0.12859894 66.39994812 -0.12780334 67.59384155 -0.12698364 68.82391357 C-0.0130183 71.6743893 0.34355389 74.23045635 1 77 C1.99 77 2.98 77 4 77 C4.268125 77.81082031 4.53625 78.62164062 4.8125 79.45703125 C9.25724674 92.01636497 16.31006395 100.70854824 25.77734375 109.78515625 C28 112 28 112 29 114 C30.3921875 114.0928125 30.3921875 114.0928125 31.8125 114.1875 C32.864375 114.455625 33.91625 114.72375 35 115 C35.93376833 116.77093994 36.86381653 118.54495768 37.7265625 120.3515625 C39.47092164 122.60959795 40.92452702 122.78082381 43.6875 123.3125 C44.86892578 123.46138672 44.86892578 123.46138672 46.07421875 123.61328125 C46.70972656 123.74089844 47.34523437 123.86851562 48 124 C48.33 124.66 48.66 125.32 49 126 C42.75473978 125.47074066 38.58343983 124.75566915 34.125 120 C31.39141351 117.42721271 28.44299425 116.4397976 25 115 C23.0625 113.4375 23.0625 113.4375 22 112 C22 111.34 22 110.68 22 110 C21.443125 109.773125 20.88625 109.54625 20.3125 109.3125 C15.07454898 106.33960888 10.9430425 101.22189643 8 96 C7.1875 92.5625 7.1875 92.5625 7 90 C6.34 90 5.68 90 5 90 C-4.51725241 74.52581767 -2.89146112 57.02599864 -2.597229 39.55822754 C-2.55054735 36.28755818 -2.53821647 33.01714199 -2.52694798 29.74618721 C-2.51185876 25.83326601 -2.47750028 21.92058705 -2.44140625 18.0078125 C-2.43612978 17.26646183 -2.43085331 16.52511116 -2.42541695 15.76129532 C-2.40699267 13.67274281 -2.37486529 11.58488298 -2.33813477 9.49658203 C-2.32146255 8.31097687 -2.30479034 7.1253717 -2.28761292 5.90383911 C-2 3 -2 3 0 0 Z " fill="#C6DAD9" transform="translate(45,49)"/>
<path d="M0 0 C4.57924528 0.76320755 4.57924528 0.76320755 6.7421875 1.98046875 C10.75119499 3.79076452 15.15539402 3.85745743 19.4921875 4.33984375 C24.51918868 5.28590522 28.61326489 7.18575592 32.25 10.8125 C32.72953125 11.27269531 33.2090625 11.73289062 33.703125 12.20703125 C38.0573009 18.22681059 37.28999551 25.52417502 37.265625 32.59765625 C37.26849518 34.43643593 37.26849518 34.43643593 37.27142334 36.31236267 C37.27278277 38.90542811 37.26910324 41.49850042 37.26074219 44.09155273 C37.25010392 48.02408523 37.26061273 51.95615416 37.2734375 55.88867188 C37.27211461 58.41666766 37.26954954 60.94466316 37.265625 63.47265625 C37.26967346 64.63354263 37.27372192 65.79442902 37.27789307 66.99049377 C37.23385323 74.82026267 36.39270094 82.29691452 35 90 C34.34 90 33.68 90 33 90 C32.67 90.66 32.34 91.32 32 92 C32.14058476 89.54126232 32.28722999 87.08314825 32.4375 84.625 C32.47681641 83.92632812 32.51613281 83.22765625 32.55664062 82.5078125 C32.88671875 77.2265625 32.88671875 77.2265625 34 75 C34.10588603 73.25963351 34.14877794 71.51526938 34.16113281 69.77172852 C34.17074036 68.6804213 34.1803479 67.58911407 34.19024658 66.46473694 C34.19449646 65.28141281 34.19874634 64.09808868 34.203125 62.87890625 C34.20882507 61.6680687 34.21452515 60.45723114 34.22039795 59.20970154 C34.22985703 56.6449369 34.23638552 54.08016005 34.24023438 51.51538086 C34.24995107 47.58230539 34.28097135 43.64974985 34.3125 39.71679688 C34.31902865 37.22916978 34.32427966 34.74153894 34.328125 32.25390625 C34.3404718 31.07260635 34.3528186 29.89130646 34.36553955 28.67420959 C34.36253845 27.57975021 34.35953735 26.48529083 34.35644531 25.35766602 C34.36009094 24.39329117 34.36373657 23.42891632 34.36749268 22.43531799 C33.93299047 19.55593806 33.17114382 18.8439732 31 17 C30.5875 16.175 30.175 15.35 29.75 14.5 C26.61184541 10.01692202 21.9265434 9.13420132 16.8125 8.1875 C10.71193884 6.97372053 5.43428483 3.92403143 0 1 C0 0.67 0 0.34 0 0 Z " fill="#559893" transform="translate(134,39)"/>
<path d="M0 0 C1.97062683 1.16514587 1.97062683 1.16514587 4 3 C4.48774719 5.43531799 4.48774719 5.43531799 4.4699707 8.35766602 C4.47289627 9.4521254 4.47582184 10.54658478 4.47883606 11.67420959 C4.46132797 12.85550949 4.44381989 14.03680939 4.42578125 15.25390625 C4.42249313 16.46570053 4.41920502 17.67749481 4.41581726 18.92601013 C4.40538692 21.48905806 4.38542125 24.05208213 4.35668945 26.61499023 C4.31263883 30.55009849 4.29526033 34.48459768 4.28320312 38.41992188 C4.26977873 40.90625885 4.25485567 43.39258828 4.23828125 45.87890625 C4.23089432 47.06223038 4.22350739 48.2455545 4.21589661 49.46473694 C4.20306137 50.55604416 4.19022614 51.64735138 4.17700195 52.77172852 C4.16715775 53.73530777 4.15731354 54.69888702 4.14717102 55.69166565 C4 58 4 58 3 60 C2.82695795 61.78462641 2.65695686 63.56964267 2.50805664 65.35644531 C1.22850401 79.38200347 -5.81431483 88.57444059 -16 98 C-18.28224304 99.48331187 -20.58304484 100.73611515 -23 102 C-21.75794193 98.27382578 -19.8889325 96.60708543 -17 94 C-16.34 94 -15.68 94 -15 94 C-14.79375 93.443125 -14.5875 92.88625 -14.375 92.3125 C-12.80849437 89.67792235 -10.84648823 88.30130542 -8.4609375 86.43359375 C-5.99527622 84.01408121 -5.17427882 81.21381572 -4 78 C-3.67 77.67 -3.34 77.34 -3 77 C-2.55193718 73.17828772 -2.17718661 69.35796011 -1.83789062 65.52539062 C-1.75861328 64.72423828 -1.67933594 63.92308594 -1.59765625 63.09765625 C-1.53070557 62.36039307 -1.46375488 61.62312988 -1.39477539 60.86352539 C-1 59 -1 59 1 57 C1.33131413 54.61519954 1.33131413 54.61519954 1.31884766 51.81591797 C1.33871735 50.73494843 1.35858704 49.65397888 1.37905884 48.54025269 C1.39061005 47.36939117 1.40216125 46.19852966 1.4140625 44.9921875 C1.43342865 43.79643097 1.4527948 42.60067444 1.4727478 41.36868286 C1.53267944 37.53752852 1.5789836 33.70634435 1.625 29.875 C1.66316724 27.28253875 1.70221821 24.69009034 1.7421875 22.09765625 C1.8383921 15.73188463 1.92339961 9.36603605 2 3 C1.34 3 0.68 3 0 3 C0 2.01 0 1.02 0 0 Z " fill="#187973" transform="translate(165,56)"/>
<path d="M0 0 C2.61602267 1.75926485 3.92147648 3.34632892 5.64453125 5.9609375 C7.05238535 8.07880448 8.22639387 9.06279765 10.375 10.375 C13 12 13 12 14 14 C13.484375 13.731875 12.96875 13.46375 12.4375 13.1875 C9.8571757 11.89074667 9.8571757 11.89074667 6.5 10.625 C3.09983008 9.04634968 1.58844336 7.58844336 -1 5 C-5.77607226 2.82905806 -9.84673703 2.5776014 -15 3 C-16.02279443 3.97667372 -17.02149805 4.97895449 -18 6 C-20.015625 6.95703125 -20.015625 6.95703125 -22.25 7.8125 C-25.57534805 9.20163733 -27.90395752 10.63207136 -30.5 13.125 C-33.79594334 16.19657161 -36.78430065 16.98294909 -41.1796875 17.67578125 C-43.01414815 17.82342874 -43.01414815 17.82342874 -44 19 C-45.95121093 19.37276865 -47.9114913 19.69864615 -49.875 20 C-53.06290893 20.49162933 -55.93717173 20.97905724 -59 22 C-61.33299825 22.03954234 -63.66708189 22.04401732 -66 22 C-65.41347656 21.71125 -64.82695313 21.4225 -64.22265625 21.125 C-62.88172724 20.44628725 -61.55170112 19.74439975 -60.24609375 19 C-55.46316691 16.35544434 -51.04925242 15.34298275 -45.67578125 14.48828125 C-39.34175739 13.33243748 -34.11441842 10.8669993 -29 7 C-28.67 6.34 -28.34 5.68 -28 5 C-26.00458132 4.31974363 -24.00382009 3.65509503 -22 3 C-21.28070313 2.49726563 -20.56140625 1.99453125 -19.8203125 1.4765625 C-14.07502045 -1.53136048 -6.27936993 -1.35888351 0 0 Z " fill="#71A5A1" transform="translate(120,25)"/>
<path d="M0 0 C2.1875 0.0625 2.1875 0.0625 5 1 C6.98331065 3.141074 8.51944527 5.49084936 10 8 C10.3472966 8.58177002 10.6945932 9.16354004 11.05241394 9.76293945 C12.22594259 12.53340513 12.26084456 14.67238916 12.2746582 17.6796875 C12.28419022 18.82187744 12.29372223 19.96406738 12.30354309 21.14086914 C12.30263168 22.37313232 12.30172028 23.60539551 12.30078125 24.875 C12.30506638 26.15044678 12.3093515 27.42589355 12.31376648 28.73999023 C12.31951331 31.44349894 12.32094293 34.1466265 12.31567383 36.85009766 C12.30992131 40.2815235 12.32670801 43.71240213 12.3500185 47.14373779 C12.36849106 50.45001211 12.36456581 53.75617468 12.36328125 57.0625 C12.372491 58.27856934 12.38170074 59.49463867 12.39118958 60.74755859 C12.34945241 68.56998771 11.25767559 75.50921324 9 83 C8.67 83 8.34 83 8 83 C8.00666183 82.13857895 8.01332367 81.2771579 8.02018738 80.38963318 C8.08040999 72.25381609 8.12603099 64.11807436 8.15543652 55.98208523 C8.17106266 51.79972731 8.19224477 47.61755427 8.22631836 43.43530273 C8.25902123 39.39581051 8.27687595 35.35649562 8.28463173 31.31688118 C8.2901557 29.77916741 8.30094261 28.24146285 8.31719017 26.703825 C8.33911051 24.54249308 8.34196096 22.38188497 8.34057617 20.22045898 C8.34723801 18.99246078 8.35389984 17.76446259 8.36076355 16.49925232 C7.81205519 11.17701567 5.94310752 6.58560563 2.3125 2.5625 C1.549375 1.716875 0.78625 0.87125 0 0 Z " fill="#B8D2D0" transform="translate(162,46)"/>
<path d="M0 0 C-5.38723182 2.69361591 -10.35435916 3.64723157 -16.328125 4.375 C-19.32513551 5.07605509 -20.14354873 5.60867682 -22 8 C-22.47030995 10.19278255 -22.47030995 10.19278255 -22.43237305 12.6550293 C-22.45216721 13.59577805 -22.47196136 14.53652679 -22.49235535 15.50578308 C-22.49874527 16.51836685 -22.50513519 17.53095062 -22.51171875 18.57421875 C-22.52966995 19.61318802 -22.54762115 20.65215729 -22.56611633 21.72261047 C-22.62034043 25.04419891 -22.65415428 28.36564266 -22.6875 31.6875 C-22.72066234 33.93817123 -22.75515097 36.18882334 -22.79101562 38.43945312 C-22.87607368 43.95950568 -22.94437223 49.47957669 -23 55 C-22.01 55 -21.02 55 -20 55 C-19.24722485 57.73249341 -18.83358297 60.28100683 -18.68359375 63.109375 C-18.64169922 63.86347656 -18.59980469 64.61757812 -18.55664062 65.39453125 C-18.51732422 66.17183594 -18.47800781 66.94914062 -18.4375 67.75 C-18.39431641 68.54277344 -18.35113281 69.33554688 -18.30664062 70.15234375 C-18.20097009 72.10137815 -18.10002034 74.05066748 -18 76 C-17.34 76 -16.68 76 -16 76 C-15.34 77.98 -14.68 79.96 -14 82 C-13.34 82 -12.68 82 -12 82 C-10.5546875 83.5390625 -10.5546875 83.5390625 -8.875 85.625 C-5.81484016 89.24097175 -2.63460511 91.96298526 1.22265625 94.6875 C3 96 3 96 5.125 98.25 C7.51687015 100.48241214 9.91006193 101.03868593 13 102 C13.33 102.66 13.66 103.32 14 104 C8.18581576 102.52707333 4.34752704 100.91237881 0.33203125 96.41015625 C-1.50470451 94.46569405 -3.70591099 93.35292429 -6 92 C-7.66666667 90.33333333 -9.33333333 88.66666667 -11 87 C-11.99 86.67 -12.98 86.34 -14 86 C-14 85.34 -14 84.68 -14 84 C-14.66 84 -15.32 84 -16 84 C-16.495 81.03 -16.495 81.03 -17 78 C-17.66 78 -18.32 78 -19 78 C-19.495 75.03 -19.495 75.03 -20 72 C-20.66 72 -21.32 72 -22 72 C-22 67.71 -22 63.42 -22 59 C-22.66 59 -23.32 59 -24 59 C-24.10135462 51.66776322 -24.17144649 44.33570683 -24.21972656 37.00292969 C-24.23985164 34.50806935 -24.26715452 32.01325622 -24.30175781 29.51855469 C-24.35023457 25.93412632 -24.3729602 22.35032115 -24.390625 18.765625 C-24.41127014 17.64883362 -24.43191528 16.53204224 -24.45318604 15.38140869 C-24.45348816 14.34063171 -24.45379028 13.29985474 -24.45410156 12.22753906 C-24.46298401 11.31264709 -24.47186646 10.39775513 -24.48101807 9.45513916 C-23.84481608 6.20793389 -22.55000549 5.04326488 -20 3 C-16.87109375 1.98828125 -16.87109375 1.98828125 -13.4375 1.3125 C-2.76074695 -0.85678354 -2.76074695 -0.85678354 0 0 Z " fill="#438A84" transform="translate(81,53)"/>
<path d="M0 0 C0.66 0.33 1.32 0.66 2 1 C0.25886376 4.36619673 -1.66844217 5.44868451 -5.125 6.625 C-9.12103252 7.83036063 -13.15677673 8.76019539 -17.25 9.5703125 C-19.01653784 9.84383855 -19.01653784 9.84383855 -20 11 C-20.10320628 12.39065257 -20.13849362 13.78644764 -20.14526367 15.1809082 C-20.15164352 16.06885574 -20.15802338 16.95680328 -20.16459656 17.87165833 C-20.16570938 18.83826889 -20.1668222 19.80487946 -20.16796875 20.80078125 C-20.17129715 21.78870163 -20.17462555 22.77662201 -20.17805481 23.79447937 C-20.18312935 25.89024387 -20.18546297 27.98601648 -20.18530273 30.08178711 C-20.1874836 33.28838476 -20.20561827 36.49463543 -20.22460938 39.70117188 C-20.2275443 41.73437382 -20.22952843 43.7675774 -20.23046875 45.80078125 C-20.23765427 46.76131912 -20.24483978 47.72185699 -20.25224304 48.71150208 C-20.24916641 49.6089061 -20.24608978 50.50631012 -20.24291992 51.4309082 C-20.24505745 52.61219048 -20.24505745 52.61219048 -20.24723816 53.81733704 C-19.96954821 56.26883389 -19.13019351 57.82680988 -18 60 C-17.6647275 63.76014476 -17.55859575 67.50069152 -17.44140625 71.2734375 C-16.98090461 75.16121237 -15.87764073 77.60522556 -14 81 C-14 81.66 -14 82.32 -14 83 C-14.66 83 -15.32 83 -16 83 C-16.99 80.03 -16.99 80.03 -18 77 C-18.66 77 -19.32 77 -20 77 C-21.4885955 74.022809 -21.33266273 70.89737329 -21.5 67.625 C-21.67456135 62.8036703 -21.67456135 62.8036703 -22.51048279 58.07293701 C-23.06453506 55.72671621 -23.12000451 53.64167783 -23.11352539 51.23144531 C-23.11344986 50.29077209 -23.11337433 49.35009888 -23.11329651 48.38092041 C-23.10813522 47.37349792 -23.10297394 46.36607544 -23.09765625 45.328125 C-23.0962413 44.29057068 -23.09482635 43.25301636 -23.09336853 42.184021 C-23.08777447 38.87265124 -23.07522303 35.56134929 -23.0625 32.25 C-23.05748423 30.00390723 -23.05292146 27.75781339 -23.04882812 25.51171875 C-23.03780699 20.0077894 -23.02107474 14.50389954 -23 9 C-18.55534995 7.02689696 -14.9320932 5.61309217 -10.0625 5.3125 C-8.62583984 5.21388672 -8.62583984 5.21388672 -7.16015625 5.11328125 C-6.44730469 5.07589844 -5.73445313 5.03851563 -5 5 C-5 4.34 -5 3.68 -5 3 C-2.625 1.3125 -2.625 1.3125 0 0 Z " fill="#9EC1BF" transform="translate(83,52)"/>
<path d="M0 0 C3.1875 -0.3125 3.1875 -0.3125 7 0 C7.7425 0.763125 8.485 1.52625 9.25 2.3125 C12.74769572 5.73070264 15.79126513 6.27804961 20.4765625 7.32421875 C23 8 23 8 26 10 C28.09485029 10.35240472 30.20165685 10.63640412 32.3125 10.875 C37.6569758 11.62572904 40.96763048 12.41567154 45 16 C46.23080509 18.46161017 46.12043977 20.06496993 46.11352539 22.81689453 C46.11344986 23.81778107 46.11337433 24.8186676 46.11329651 25.84988403 C46.10813522 26.93325043 46.10297394 28.01661682 46.09765625 29.1328125 C46.0962413 30.23978485 46.09482635 31.3467572 46.09336853 32.48727417 C46.08775772 36.03320993 46.07520337 39.57908323 46.0625 43.125 C46.05748639 45.52473867 46.05292325 47.92447833 46.04882812 50.32421875 C46.03778478 56.21616725 46.0210361 62.10807916 46 68 C45.67 68 45.34 68 45 68 C44.99413376 67.39056549 44.98826752 66.78113098 44.98222351 66.15322876 C44.91843349 59.82677684 44.83405216 53.50084046 44.73754883 47.17480469 C44.7042344 44.81191797 44.67622303 42.44895042 44.65356445 40.0859375 C44.6201383 36.69496107 44.56782853 33.30472984 44.51171875 29.9140625 C44.50532883 28.85256989 44.4989389 27.79107727 44.49235535 26.69741821 C44.46266411 25.22611954 44.46266411 25.22611954 44.43237305 23.72509766 C44.41571846 22.42603989 44.41571846 22.42603989 44.39872742 21.10073853 C44.20135735 20.06087296 44.20135735 20.06087296 44 19 C40.64948591 16.76632394 39.36114966 16.75800507 35.4375 16.625 C29.28125544 16.19532228 24.53216612 14.64696943 19 12 C18.11957031 11.59265625 17.23914063 11.1853125 16.33203125 10.765625 C11.77461476 8.58452759 7.81204742 6.36357125 4 3 C2.67098936 1.99426222 1.33926199 0.99204592 0 0 Z " fill="#31827D" transform="translate(115,40)"/>
<path d="M0 0 C3 1 3 1 4.25 2.9375 C6.72427667 5.85361179 9.35317873 6.17430462 13 7 C13 7.66 13 8.32 13 9 C13.99 9.33 14.98 9.66 16 10 C16.5775 10.78375 17.155 11.5675 17.75 12.375 C20.61283924 15.71497911 22.92311333 16.4615522 27 18 C27.33 18.33 27.66 18.66 28 19 C29.155 19.165 30.31 19.33 31.5 19.5 C35 20 35 20 36 21 C39 21.16666667 39 21.16666667 42 21 C42.495 20.505 42.495 20.505 43 20 C44.35163027 19.8669073 45.70677373 19.76889008 47.0625 19.6875 C51.41000664 19.27147066 54.51598161 18.01236454 58.2734375 15.83984375 C60 15 60 15 63 15 C60.30895996 18.32422593 56.86640714 19.38313883 53 21 C52.34 21.66 51.68 22.32 51 23 C49.01276732 23.70381157 47.01222047 24.3711811 45 25 C44.01 25.495 44.01 25.495 43 26 C37.16875833 26.06164103 32.32373927 24.56090782 27.12890625 22.03125 C24.77910026 20.85179804 24.77910026 20.85179804 21.3125 19.625 C17.85354288 17.92815311 15.96811841 16.17964494 13.39453125 13.40234375 C11.95135692 11.83301377 11.95135692 11.83301377 9.5625 10.5625 C5.85398979 8.30121328 2.78544499 5.33129588 0 2 C0 1.34 0 0.68 0 0 Z " fill="#B9D3D1" transform="translate(69,135)"/>
<path d="M0 0 C1.46067199 0.45082469 2.91848032 0.91093537 4.375 1.375 C5.18710938 1.63023438 5.99921875 1.88546875 6.8359375 2.1484375 C9 3 9 3 11 5 C16.22341269 7.15081699 21.66980783 8.72986133 27.17578125 9.97265625 C27.8826709 10.13459473 28.58956055 10.2965332 29.31787109 10.46337891 C30.70126519 10.77281813 32.08836742 11.06624129 33.47900391 11.34130859 C38.3549535 12.42904854 40.76018379 14.26310008 44 18 C44.721875 18.66 45.44375 19.32 46.1875 20 C49.80294745 23.98945925 50.25108847 27.97804333 50.25878906 33.22387695 C50.26509338 34.45898514 50.27139771 35.69409332 50.27789307 36.96662903 C50.27431183 38.30718122 50.27020951 39.64773211 50.265625 40.98828125 C50.26697383 42.37444629 50.26891619 43.76061086 50.27142334 45.14677429 C50.27436728 48.04931145 50.27010254 50.95172527 50.26074219 53.85424805 C50.24938 57.55608926 50.25589104 61.25763938 50.26788712 64.9594698 C50.27515291 67.82240445 50.27279571 70.68527142 50.26763153 73.54820824 C50.26630638 74.91202009 50.26790255 76.27583828 50.27259064 77.63964272 C50.29166815 84.75225318 50.15899102 91.19231753 48 98 C47.67 98 47.34 98 47 98 C47.06860733 97.43510864 47.13721466 96.87021729 47.207901 96.28820801 C48.45850023 85.09150124 48.33841697 73.84082279 48.4050293 62.58740234 C48.42287546 59.86199155 48.45778567 57.13760892 48.50756836 54.41259766 C48.57976337 50.45219618 48.60203767 46.49227936 48.62109375 42.53125 C48.64892441 41.32368042 48.67675507 40.11611084 48.70542908 38.87194824 C48.68615473 30.8955178 47.22015889 25.19097916 42 19 C38.93237162 16.96175327 38.93237162 16.96175327 36 16 C35.34 15.34 34.68 14.68 34 14 C31.84298062 13.66079131 29.6729243 13.40243056 27.5 13.1875 C20.16631838 12.24438251 13.35053261 10.35053261 8 5 C7.01 4.690625 6.02 4.38125 5 4.0625 C2 3 2 3 0 0 Z " fill="#D1E2E1" transform="translate(125,29)"/>
<path d="M0 0 C-1.50142295 3.0028459 -3.74935512 3.32168557 -6.8125 4.5625 C-7.87082031 4.99691406 -8.92914063 5.43132813 -10.01953125 5.87890625 C-12.35509339 6.75742045 -14.56743939 7.47579202 -17 8 C-17 8.66 -17 9.32 -17 10 C-17.97582031 10.20496094 -18.95164062 10.40992188 -19.95703125 10.62109375 C-21.22933594 10.89050781 -22.50164062 11.15992188 -23.8125 11.4375 C-25.07707031 11.70433594 -26.34164062 11.97117187 -27.64453125 12.24609375 C-30.97045413 12.93427886 -30.97045413 12.93427886 -34 14 C-34.33 29.51 -34.66 45.02 -35 61 C-35.66 61 -36.32 61 -37 61 C-37.10139564 54.37985308 -37.17146336 47.75990628 -37.21972656 41.13916016 C-37.23984556 38.88680539 -37.26714408 36.63450287 -37.30175781 34.38232422 C-37.35026209 31.14537669 -37.37296605 27.90911953 -37.390625 24.671875 C-37.41127014 23.66445251 -37.43191528 22.65703003 -37.45318604 21.61907959 C-37.4554254 14.646733 -37.4554254 14.646733 -35.15527344 11.38037109 C-32.41708395 9.62666433 -30.22114245 9.25348424 -27 8.875 C-23.16682952 8.40543662 -20.40727001 7.77706755 -17 6 C-16.01 6 -15.02 6 -14 6 C-13.814375 5.38125 -13.62875 4.7625 -13.4375 4.125 C-10.52866304 -0.17501986 -4.84933443 -0.29389906 0 0 Z " fill="#6AA09C" transform="translate(95,47)"/>
<path d="M0 0 C0.66 0 1.32 0 2 0 C3.1337692 2.01592653 4.25661641 4.03799747 5.375 6.0625 C6.00148438 7.18785156 6.62796875 8.31320313 7.2734375 9.47265625 C9 13 9 13 10.03515625 16.69140625 C10.98409047 19.94544385 11.78306342 21.45006747 14.0625 23.875 C14.68253906 24.53757813 15.30257812 25.20015625 15.94140625 25.8828125 C16.62074219 26.58148438 17.30007812 27.28015625 18 28 C18.73089844 28.78117187 19.46179688 29.56234375 20.21484375 30.3671875 C24.50529461 34.84099096 28.4239687 38.27130383 34 41 C34 41.33 34 41.66 34 42 C30.7805367 42.58535696 29.10108345 42.83073949 26 42 C22.52712911 39.05678706 19.83852113 35.54318896 17 32 C15.5898198 30.47315021 14.17348187 28.95195628 12.75 27.4375 C6.36310098 20.21422134 0 9.85121288 0 0 Z " fill="#659D99" transform="translate(48,122)"/>
<path d="M0 0 C3.96 0 7.92 0 12 0 C13.25842474 2.51684948 13.13376463 4.25615824 13.14526367 7.07299805 C13.15483345 8.6605616 13.15483345 8.6605616 13.16459656 10.28019714 C13.16570938 11.42909927 13.1668222 12.5780014 13.16796875 13.76171875 C13.17129715 14.94087357 13.17462555 16.12002838 13.17805481 17.33491516 C13.18312655 19.83582163 13.18546306 22.33673488 13.18530273 24.83764648 C13.18748102 28.65424888 13.20561174 32.47055848 13.22460938 36.28710938 C13.22754492 38.71614484 13.22952864 41.14518169 13.23046875 43.57421875 C13.23765427 44.71299973 13.24483978 45.8517807 13.25224304 47.02507019 C13.23585729 52.74578787 12.95268972 57.60434633 11 63 C10.34 63 9.68 63 9 63 C8.97315321 60.35409986 8.95323643 57.70846904 8.9375 55.0625 C8.92912109 54.30775391 8.92074219 53.55300781 8.91210938 52.77539062 C8.90347559 50.85005687 8.94775667 48.92464419 9 47 C9.495 46.505 9.495 46.505 10 46 C10.12209924 44.58882298 10.17770872 43.17179541 10.20532227 41.75561523 C10.2352401 40.40432777 10.2352401 40.40432777 10.26576233 39.02574158 C10.28247482 38.04658279 10.29918732 37.06742401 10.31640625 36.05859375 C10.3475779 34.56248314 10.3475779 34.56248314 10.37937927 33.03614807 C10.44498637 29.83667157 10.50381134 26.63711018 10.5625 23.4375 C10.60567462 21.27407961 10.64928855 19.11066794 10.69335938 16.94726562 C10.80067909 11.63159836 10.90191469 6.31584536 11 1 C7.37 1 3.74 1 0 1 C0 0.67 0 0.34 0 0 Z " fill="#C9DEDC" transform="translate(142,61)"/>
<path d="M0 0 C5.75 0.75 5.75 0.75 8 3 C8.26069641 5.01325989 8.26069641 5.01325989 8.2746582 7.51879883 C8.28419022 8.45770462 8.29372223 9.39661041 8.30354309 10.3639679 C8.30263168 11.3846788 8.30172028 12.40538971 8.30078125 13.45703125 C8.30506638 14.5109758 8.3093515 15.56492035 8.31376648 16.65080261 C8.31952219 18.8911365 8.32000097 21.13148907 8.31567383 23.37182617 C8.31254788 26.76059139 8.33583835 30.14845441 8.36132812 33.53710938 C8.45114966 63.97365873 8.45114966 63.97365873 -1 75 C-0.25 70.25 -0.25 70.25 2 68 C2.46659731 65.27530214 2.83599254 62.61820198 3.125 59.875 C3.21136719 59.12089844 3.29773438 58.36679688 3.38671875 57.58984375 C3.59889261 55.72742873 3.80045763 53.86381069 4 52 C4.66 52 5.32 52 6 52 C5.983714 45.39749511 5.92889472 38.7961118 5.84741211 32.1940918 C5.82423055 29.94872307 5.80983605 27.70324558 5.80444336 25.45776367 C5.7951553 22.22766327 5.75416577 18.99927391 5.70703125 15.76953125 C5.7109639 14.76727005 5.71489655 13.76500885 5.71894836 12.7323761 C5.66469628 6.6930835 5.66469628 6.6930835 2.45581055 1.8269043 C1.64539307 1.22402588 0.83497559 0.62114746 0 0 Z " fill="#699F9C" transform="translate(152,56)"/>
<path d="M0 0 C1.70703125 2.0234375 1.70703125 2.0234375 3 4 C2.39414063 3.835 1.78828125 3.67 1.1640625 3.5 C-3.01513376 2.67701981 -5.78900405 2.21055327 -9.46875 4.609375 C-11.09993421 6.06049342 -12.72209961 7.52180187 -14.3359375 8.9921875 C-18.13929104 11.85864456 -21.90949568 12.58395411 -26.53125 13.4296875 C-29.16070042 13.80749846 -29.16070042 13.80749846 -31 16 C-36.70351973 18.57960021 -41.79223894 19.33860515 -48 19 C-48 18.67 -48 18.34 -48 18 C-46.40494792 17.57682292 -44.80989583 17.15364583 -43.21484375 16.73046875 C-37.05674236 14.69948998 -31.1805079 11.7408079 -25.3125 9 C-24.56677734 8.65710937 -23.82105469 8.31421875 -23.05273438 7.9609375 C-19.38909204 6.24840531 -16.1745098 4.53811043 -13 2 C-8.57729958 0.1326376 -4.79164695 -0.5424506 0 0 Z " fill="#13736C" transform="translate(112,36)"/>
<path d="M0 0 C0.66 0 1.32 0 2 0 C2.58007812 0.61746094 3.16015625 1.23492187 3.7578125 1.87109375 C6.38620723 4.36669502 8.4182527 5.04658572 11.875 6.0625 C15.26415334 7.10058208 18.11895146 8.06405079 21.25 9.75 C27.27151098 12.48705045 32.82396826 11.08501325 38.76953125 8.92578125 C41.63989611 7.73440389 44.38412178 6.35770384 47.13671875 4.91796875 C49.67447734 3.66771033 52.29458365 2.81162491 55 2 C53.69704942 4.51903779 52.52358852 5.79670189 49.8671875 6.828125 C48.27240494 7.31014931 46.66929492 7.7655887 45.05859375 8.19140625 C42.64514712 8.91298881 42.64514712 8.91298881 41 12 C31.86013598 15.54596384 22.93180655 14.31145209 14 11 C13.31550781 10.65324219 12.63101563 10.30648437 11.92578125 9.94921875 C9.80263096 8.8103236 9.80263096 8.8103236 6.4375 8.1875 C3 7 3 7 1.0625 4.5 C0 2 0 2 0 0 Z " fill="#98BDBB" transform="translate(80,164)"/>
<path d="M0 0 C0.99 0.33 1.98 0.66 3 1 C-0.20229933 3.65333373 -3.39659058 5.92803958 -7 8 C-9.71388813 9.6154096 -12.37121728 11.24747819 -15 13 C-16.52780406 13.56019482 -18.07117549 14.07914417 -19.625 14.5625 C-22.57168552 15.338786 -22.57168552 15.338786 -25 17 C-27.33297433 17.04092937 -29.66705225 17.04241723 -32 17 C-32 17.66 -32 18.32 -32 19 C-38.18003245 20.47783385 -43.16549234 19.53722843 -49 17 C-49.33 16.34 -49.66 15.68 -50 15 C-44.25 14.875 -44.25 14.875 -42 16 C-36.25815604 16.30220231 -30.42449276 16.10452312 -25 14 C-24.34 13.01 -23.68 12.02 -23 11 C-20.75 10.26171875 -20.75 10.26171875 -18 9.6875 C-11.2249811 8.0093662 -4.97788493 4.97788493 0 0 Z " fill="#BBD4D2" transform="translate(146,161)"/>
<path d="M0 0 C0.495 1.485 0.495 1.485 1 3 C-4.08624108 12.23058566 -11.11410562 17.79850085 -20 23 C-20.67933594 23.47566406 -21.35867187 23.95132813 -22.05859375 24.44140625 C-26.68998616 27.68259993 -30.49262613 29.73789349 -36 31 C-36.33 31.33 -36.66 31.66 -37 32 C-38.51928038 32.07179964 -40.04167482 32.08392007 -41.5625 32.0625 C-42.38878906 32.05347656 -43.21507813 32.04445312 -44.06640625 32.03515625 C-44.70449219 32.02355469 -45.34257813 32.01195312 -46 32 C-46 31.34 -46 30.68 -46 30 C-46.7425 29.87625 -47.485 29.7525 -48.25 29.625 C-50.80141485 29.04513299 -52.7267573 28.26291261 -55 27 C-53.4375 26.3125 -53.4375 26.3125 -51 26 C-48.66443537 26.99477753 -46.33124929 27.99515117 -44 29 C-39.81389189 29.4025104 -38.55008317 29.36672211 -35 27 C-33.576875 26.5359375 -33.576875 26.5359375 -32.125 26.0625 C-29.057211 25.01945174 -26.71793358 23.74226512 -24 22 C-21.38704419 20.39202719 -18.84385952 18.92691297 -16.0625 17.625 C-8.1100937 13.40535584 -4.51315074 7.6242872 0 0 Z " fill="#76A8A4" transform="translate(150,131)"/>
<path d="M0 0 C-1.2065625 0.9590625 -1.2065625 0.9590625 -2.4375 1.9375 C-4.2750504 3.40603502 -4.2750504 3.40603502 -6 5 C-6.12281952 6.62579218 -6.17782504 8.25677004 -6.20532227 9.88696289 C-6.22526749 10.92796646 -6.24521271 11.96897003 -6.26576233 13.04151917 C-6.28247482 14.1737944 -6.29918732 15.30606964 -6.31640625 16.47265625 C-6.33718735 17.62543564 -6.35796844 18.77821503 -6.37937927 19.96592712 C-6.44499964 23.66472157 -6.50381755 27.36358959 -6.5625 31.0625 C-6.60567335 33.56315879 -6.64928724 36.06381001 -6.69335938 38.56445312 C-6.80069368 44.70955662 -6.90243643 50.85473404 -7 57 C-7.66 56.67 -8.32 56.34 -9 56 C-9.07593983 48.5069832 -9.12855332 41.01406529 -9.16479492 33.52075195 C-9.17990005 30.97058402 -9.20038533 28.42044214 -9.22631836 25.87036133 C-9.26262504 22.20908181 -9.27970915 18.54814515 -9.29296875 14.88671875 C-9.30845261 13.7428923 -9.32393646 12.59906586 -9.33988953 11.420578 C-9.34011612 10.35970474 -9.34034271 9.29883148 -9.34057617 8.20581055 C-9.34723801 7.27093307 -9.35389984 6.3360556 -9.36076355 5.37284851 C-9 3 -9 3 -7.67793274 1.18635559 C-5.17291934 -0.5847742 -2.97757854 -0.19850524 0 0 Z " fill="#1D7A74" transform="translate(64,55)"/>
<path d="M0 0 C0.33 0 0.66 0 1 0 C1.01417969 0.75023438 1.02835938 1.50046875 1.04296875 2.2734375 C1.46493898 11.32869052 4.01950148 17.52925222 9 25 C9.2475 26.051875 9.495 27.10375 9.75 28.1875 C12.16457802 36.93119919 20.29517552 44.33366713 27 50 C29.32763274 51.28546332 31.59364675 52.27042623 34.08203125 53.1953125 C36.64629074 54.27115253 38.2505874 55.87028031 40 58 C34.73582038 57.59506311 32.47730515 56.94094584 29 53 C27.92685547 52.40832031 27.92685547 52.40832031 26.83203125 51.8046875 C22.97628043 49.34764353 20.0025819 46.25341685 16.8125 43 C16.18408203 42.3709375 15.55566406 41.741875 14.90820312 41.09375 C10.83984201 36.98622819 8.23425923 33.91885993 6.7734375 28.1953125 C5.79004334 25.4040624 4.33615047 23.00994801 2.875 20.4375 C-0.68127146 13.62706751 -0.60158856 7.53099756 0 0 Z " fill="#34827C" transform="translate(49,108)"/>
<path d="M0 0 C2.40243875 4.8048775 0.17432059 12.8677841 -1 18 C-5.06407826 28.70109815 -15.04228413 38.79286729 -25 44 C-23.75794193 40.27382578 -21.8889325 38.60708543 -19 36 C-18.34 36 -17.68 36 -17 36 C-16.79375 35.443125 -16.5875 34.88625 -16.375 34.3125 C-15 32 -15 32 -12.0625 29.6875 C-8.63496184 26.95046103 -7.45781094 24.16517411 -6 20 C-5.61714844 18.96166016 -5.61714844 18.96166016 -5.2265625 17.90234375 C-3.47633036 12.98956343 -2.3329024 8.10281362 -1.4296875 2.96875 C-1 1 -1 1 0 0 Z " fill="#33827D" transform="translate(167,114)"/>
<path d="M0 0 C1.6256807 0.30893932 3.25052748 0.6222695 4.875 0.9375 C5.77992188 1.11152344 6.68484375 1.28554688 7.6171875 1.46484375 C10 2 10 2 12 3 C15.01742278 3.1979359 18.03274845 3.31812003 21.0546875 3.42578125 C24.85379754 4.16645655 25.77236664 4.81517582 28 8 C28.5648612 11.55816725 28.46428854 15.07730989 28.390625 18.671875 C28.38496521 19.70942932 28.37930542 20.74698364 28.37347412 21.815979 C28.35109491 25.12778992 28.30089419 28.43851644 28.25 31.75 C28.22993706 33.99607812 28.21168594 36.24217321 28.1953125 38.48828125 C28.15122518 43.99255709 28.08429741 49.49620107 28 55 C27.67 55 27.34 55 27 55 C27 39.82 27 24.64 27 9 C23.05513335 7.42205334 20.2755826 6.60008552 16.1875 6 C11.35254912 5.23093876 6.6744667 4.47159137 2 3 C1.34 2.01 0.68 1.02 0 0 Z " fill="#7FADAA" transform="translate(130,53)"/>
<path d="M0 0 C3.1875 -0.3125 3.1875 -0.3125 7 0 C7.7425 0.763125 8.485 1.52625 9.25 2.3125 C12.74769572 5.73070264 15.79126513 6.27804961 20.4765625 7.32421875 C23 8 23 8 26 10 C29.31368509 10.57647872 32.6280925 10.95235758 35.96875 11.33984375 C39.06278817 12.01367423 40.11644102 12.53119234 42 15 C41.34515625 14.86722656 40.6903125 14.73445313 40.015625 14.59765625 C34.95779078 13.61895104 30.08734325 12.91460074 24.9375 12.6875 C16.67397013 12.08651601 10.15714083 8.43277132 4 3 C2.67098936 1.99426222 1.33926199 0.99204592 0 0 Z " fill="#13736D" transform="translate(115,40)"/>
<path d="M0 0 C0.33 0 0.66 0 1 0 C1.04671314 7.20732834 1.08206437 14.41462308 1.10362434 21.62207317 C1.11398153 24.97021096 1.12910201 28.31816543 1.15087891 31.66625977 C1.17537399 35.53143998 1.18653931 39.39647457 1.1953125 43.26171875 C1.20563507 44.44142746 1.21595764 45.62113617 1.22659302 46.83659363 C1.22763858 54.72839679 0.41591804 62.23783714 -1 70 C-1.66 70 -2.32 70 -3 70 C-3.495 70.99 -3.495 70.99 -4 72 C-3.85941524 69.54126232 -3.71277001 67.08314825 -3.5625 64.625 C-3.52318359 63.92632812 -3.48386719 63.22765625 -3.44335938 62.5078125 C-3.11328125 57.2265625 -3.11328125 57.2265625 -2 55 C-1.34 55 -0.68 55 0 55 C0 36.85 0 18.7 0 0 Z " fill="#72A7A3" transform="translate(170,59)"/>
<path d="M0 0 C1.56089092 2.79317323 2.26898988 4.9177774 2.4140625 8.109375 C2.45273437 8.86347656 2.49140625 9.61757812 2.53125 10.39453125 C2.5621875 11.17183594 2.593125 11.94914062 2.625 12.75 C2.66367187 13.54277344 2.70234375 14.33554688 2.7421875 15.15234375 C2.836108 17.10119416 2.91912822 19.05056451 3 21 C3.66 21 4.32 21 5 21 C5.66 22.98 6.32 24.96 7 27 C7.66 27 8.32 27 9 27 C10.4453125 28.5390625 10.4453125 28.5390625 12.125 30.625 C15.18515984 34.24097175 18.36539489 36.96298526 22.22265625 39.6875 C24 41 24 41 26.125 43.25 C28.51687015 45.48241214 30.91006193 46.03868593 34 47 C34.33 47.66 34.66 48.32 35 49 C29.18581576 47.52707333 25.34752704 45.91237881 21.33203125 41.41015625 C19.49529549 39.46569405 17.29408901 38.35292429 15 37 C13.33333333 35.33333333 11.66666667 33.66666667 10 32 C9.01 31.67 8.02 31.34 7 31 C7 30.34 7 29.68 7 29 C6.34 29 5.68 29 5 29 C4.67 27.02 4.34 25.04 4 23 C3.34 23 2.68 23 2 23 C0.79729036 20.59458071 0.79683337 18.89633409 0.68359375 16.2109375 C0.64169922 15.26992187 0.59980469 14.32890625 0.55664062 13.359375 C0.51732422 12.37453125 0.47800781 11.3896875 0.4375 10.375 C0.39431641 9.38242188 0.35113281 8.38984375 0.30664062 7.3671875 C0.20038931 4.91160162 0.09835036 2.45591297 0 0 Z " fill="#659E9A" transform="translate(60,108)"/>
<path d="M0 0 C2.3125 0.1875 2.3125 0.1875 5 1 C8.91576715 6.07599446 10.2516445 11.76285862 10.24291992 18.07788086 C10.24599655 19.25607895 10.24907318 20.43427704 10.25224304 21.6481781 C10.24505753 22.90767776 10.23787201 24.16717743 10.23046875 25.46484375 C10.22978142 27.42485069 10.22978142 27.42485069 10.2290802 29.42445374 C10.22752083 32.18398398 10.21927477 34.9433835 10.20581055 37.70288086 C10.1888384 41.22424559 10.18499616 44.74546679 10.18575573 48.26686764 C10.18541694 51.64537857 10.17656829 55.02384334 10.16796875 58.40234375 C10.16685593 59.65981918 10.1657431 60.91729462 10.16459656 62.21287537 C10.13384396 67.90730022 10.03551829 73.39374014 9 79 C8.67 79 8.34 79 8 79 C8.00666183 78.18869125 8.01332367 77.37738251 8.02018738 76.54148865 C8.08042594 68.876576 8.12603892 61.21177896 8.15543652 53.54669094 C8.17105847 49.60646359 8.19223273 45.66643268 8.22631836 41.72631836 C8.25903646 37.92024378 8.27687909 34.11435756 8.28463173 30.30815315 C8.290153 28.8597524 8.3009346 27.41136136 8.31719017 25.96304131 C8.50397599 13.29930406 8.50397599 13.29930406 2.3125 2.5625 C1.549375 1.716875 0.78625 0.87125 0 0 Z " fill="#97BDBA" transform="translate(162,46)"/>
<path d="M0 0 C1.44096586 0.42594588 2.87768712 0.86626633 4.3125 1.3125 C5.11300781 1.55613281 5.91351563 1.79976562 6.73828125 2.05078125 C9.14574771 3.06116873 10.22602482 4.13013427 12 6 C18.24986467 9.87684762 24.73840621 10.68308551 31.9609375 11.3125 C35 12 35 12 36.9140625 14.0625 C37.45160156 15.0215625 37.45160156 15.0215625 38 16 C37.35417969 15.86464844 36.70835937 15.72929688 36.04296875 15.58984375 C33.65176176 15.12633636 31.26663154 14.70764932 28.86328125 14.31640625 C28.12142578 14.19330078 27.37957031 14.07019531 26.61523438 13.94335938 C25.06928981 13.6876688 23.52238139 13.43774443 21.97460938 13.19335938 C16.22405134 12.22405134 16.22405134 12.22405134 14 10 C13.29875 9.7525 12.5975 9.505 11.875 9.25 C7.51682219 7.35514008 2.18152877 4.36305753 0 0 Z " fill="#95BCB9" transform="translate(124,30)"/>
<path d="M0 0 C0.66 0.33 1.32 0.66 2 1 C-1.30274952 5.52599008 -4.35320198 7.96710321 -9.5625 10 C-12.02138162 10.86390676 -12.02138162 10.86390676 -13.7734375 12.4921875 C-16.54709903 14.37049163 -18.75744542 14.6744969 -22.0625 15.125 C-25.21055074 15.56860666 -27.97965151 15.99321717 -31 17 C-33.33299825 17.03954234 -35.66708189 17.04401732 -38 17 C-37.41347656 16.71125 -36.82695313 16.4225 -36.22265625 16.125 C-34.88172724 15.44628725 -33.55170112 14.74439975 -32.24609375 14 C-27.46316691 11.35544434 -23.04925242 10.34298275 -17.67578125 9.48828125 C-11.34175739 8.33243748 -6.11441842 5.8669993 -1 2 C-0.67 1.34 -0.34 0.68 0 0 Z " fill="#88B3B0" transform="translate(92,30)"/>
<path d="M0 0 C0.65355469 0.58007812 0.65355469 0.58007812 1.3203125 1.171875 C4.17515867 3.66832057 6.952961 5.96895426 10.125 8.0625 C13 10 13 10 15.125 12.4375 C19.47068299 16.31082614 24.60696616 17.95609755 30 20 C31.66775834 20.66393097 33.33481515 21.32964066 35 22 C35 22.66 35 23.32 35 24 C37.64 24 40.28 24 43 24 C43 24.33 43 24.66 43 25 C41.52093108 25.02689216 40.04172517 25.04634621 38.5625 25.0625 C37.32693359 25.07990234 37.32693359 25.07990234 36.06640625 25.09765625 C34 25 34 25 33 24 C31.948125 23.9175 30.89625 23.835 29.8125 23.75 C25.23284468 22.8490842 23.40758614 21.1112743 20 18 C19.154375 17.505 18.30875 17.01 17.4375 16.5 C14.51122245 14.69921381 12.42474956 12.42474956 10 10 C9.175 9.505 8.35 9.01 7.5 8.5 C4.49977053 6.69986232 2.33142768 4.59787655 0 2 C0 1.34 0 0.68 0 0 Z " fill="#438B86" transform="translate(69,139)"/>
<path d="M0 0 C0.33 0.66 0.66 1.32 1 2 C-1.6242606 9.8426179 -6.8789882 16.54978402 -13 22 C-15.51171875 23.1796875 -15.51171875 23.1796875 -18 24 C-18.73863281 24.28101563 -19.47726563 24.56203125 -20.23828125 24.8515625 C-22.15885417 25.56770833 -24.07942708 26.28385417 -26 27 C-25.375 25.125 -25.375 25.125 -24 23 C-22.02111039 22.27306096 -20.02045442 21.60183749 -18 21 C-17.67 20.34 -17.34 19.68 -17 19 C-15.68 19 -14.36 19 -13 19 C-12.75121094 18.43023437 -12.50242188 17.86046875 -12.24609375 17.2734375 C-10.81525571 14.66294301 -9.10220306 12.79004794 -7.0625 10.625 C-3.96083403 7.2193595 -1.74342542 4.24959946 0 0 Z " fill="#CEE1E0" transform="translate(147,127)"/>
<path d="M0 0 C4.58458647 0.76409774 4.58458647 0.76409774 6.7265625 1.98046875 C10.84938053 3.82936137 15.4265476 3.86271767 19.8828125 4.33984375 C23 5 23 5 25 8 C25.78375 8.433125 26.5675 8.86625 27.375 9.3125 C30.59502864 11.38251841 32.0488871 13.74814516 34 17 C33.67 17.66 33.34 18.32 33 19 C32.74089844 18.46890625 32.48179687 17.9378125 32.21484375 17.390625 C29.87528838 13.46990223 28.05184955 11.38406756 23.68359375 9.7890625 C21.76160941 9.32778626 19.83915208 8.86720581 17.90771484 8.44726562 C11.388974 7.00186854 5.82252714 4.25280846 0 1 C0 0.67 0 0.34 0 0 Z " fill="#478D87" transform="translate(134,39)"/>
<path d="M0 0 C0.66 0.33 1.32 0.66 2 1 C1.030625 1.61875 0.06125 2.2375 -0.9375 2.875 C-4.02835362 4.65678846 -4.02835362 4.65678846 -5 7 C-7.67528994 7.5702906 -10.29913578 8.03333537 -13 8.4375 C-21.26365396 9.78554509 -28.94309789 11.21951793 -36 16 C-34.35522305 12.15683824 -32.49225986 10.72383567 -28.66796875 8.93359375 C-24.13649425 7.34790941 -19.43256835 6.64697744 -14.71875 5.7890625 C-6.78548849 4.1562144 -6.78548849 4.1562144 0 0 Z " fill="#D0E2E1" transform="translate(82,33)"/>
<path d="M0 0 C1 2 1 2 0.546875 3.98828125 C-3.66870168 16.28371325 -11.1279864 21.83073794 -21.58203125 29.203125 C-23.59066953 30.69581258 -25.30219498 32.17246237 -27 34 C-27.66 33.67 -28.32 33.34 -29 33 C-24.75970071 29.13269 -20.55964127 25.32517674 -15.875 22 C-9.70589072 17.45953557 -5.00325975 12.51222407 -3 5 C-2.0436126 3.30792999 -1.05589069 1.63183107 0 0 Z " fill="#84B0AD" transform="translate(165,132)"/>
<path d="M0 0 C3.34462269 0.58421357 4.96450336 1.64608779 7.375 4 C9.92345588 6.31925857 10.65860339 6.95314164 14.1875 7.4375 C15.5796875 7.7159375 15.5796875 7.7159375 17 8 C17.93376833 9.77093994 18.86381653 11.54495768 19.7265625 13.3515625 C21.47092164 15.60959795 22.92452702 15.78082381 25.6875 16.3125 C26.86892578 16.46138672 26.86892578 16.46138672 28.07421875 16.61328125 C28.70972656 16.74089844 29.34523438 16.86851562 30 17 C30.33 17.66 30.66 18.32 31 19 C24.75473978 18.47074066 20.58343983 17.75566915 16.125 13 C13.39141351 10.42721271 10.44299425 9.4397976 7 8 C5.0625 6.4375 5.0625 6.4375 4 5 C4 4.34 4 3.68 4 3 C2.68 2.34 1.36 1.68 0 1 C0 0.67 0 0.34 0 0 Z " fill="#CDDFDE" transform="translate(63,156)"/>
<path d="M0 0 C0 0.33 0 0.66 0 1 C-1.051875 1.268125 -2.10375 1.53625 -3.1875 1.8125 C-6.65585911 2.89280857 -8.98764524 4.0419694 -12 6 C-13.134375 6.61875 -14.26875 7.2375 -15.4375 7.875 C-17.91851422 9.26286757 -19.91612291 10.75921907 -22 12.6875 C-25.44171552 15.34048904 -27.71801512 15.74308091 -32 16 C-29.68722739 12.53084109 -28.75057797 12.44908694 -25 11 C-21.46601655 8.85189241 -19.3063896 7.4595844 -17 4 C-15.02253397 3.26919734 -13.01927511 2.60578253 -11 2 C-10.360625 1.62875 -9.72125 1.2575 -9.0625 0.875 C-6.04232598 -0.40628595 -3.23675602 -0.12449062 0 0 Z " fill="#458C87" transform="translate(111,26)"/>
<path d="M0 0 C0.58784485 1.84017944 0.58784485 1.84017944 1 4 C0.5361792 4.84385254 0.0723584 5.68770508 -0.40551758 6.55712891 C-2.65107672 11.40583126 -2.47858581 15.8023699 -2.51171875 21.0859375 C-2.52966995 22.14285797 -2.54762115 23.19977844 -2.56611633 24.28872681 C-2.62011938 27.6507778 -2.65408362 31.0126876 -2.6875 34.375 C-2.72068183 36.66017585 -2.75517229 38.9453331 -2.79101562 41.23046875 C-2.87584009 46.82018588 -2.94423229 52.40992151 -3 58 C-3.33 58 -3.66 58 -4 58 C-4.10178049 51.02584356 -4.17162496 44.05188011 -4.21972656 37.07714844 C-4.23978826 34.70663291 -4.26704426 32.33616655 -4.30175781 29.96582031 C-4.35051418 26.55000649 -4.37302399 23.13484945 -4.390625 19.71875 C-4.41127014 18.66635132 -4.43191528 17.61395264 -4.45318604 16.52966309 C-4.45519231 9.88620805 -3.44842048 5.70361589 0 0 Z " fill="#0A746D" transform="translate(53,50)"/>
<path d="M0 0 C5.75 0.75 5.75 0.75 8 3 C8.24050903 5.10073853 8.24050903 5.10073853 8.22705078 7.72509766 C8.22682419 9.19639633 8.22682419 9.19639633 8.22659302 10.69741821 C8.21627045 11.75891083 8.20594788 12.82040344 8.1953125 13.9140625 C8.1924826 14.99883881 8.18965271 16.08361511 8.18673706 17.20126343 C8.17551578 20.67595313 8.15040762 24.15038782 8.125 27.625 C8.11497272 29.97655879 8.10584643 32.3281216 8.09765625 34.6796875 C8.07557011 40.45321244 8.04207345 46.22658801 8 52 C7.67 52 7.34 52 7 52 C7.00079559 51.43481155 7.00159119 50.86962311 7.00241089 50.28730774 C7.00485097 44.39809645 6.96563179 38.51020198 6.90234375 32.62133789 C6.88418907 30.42446004 6.87661427 28.22746801 6.87988281 26.03051758 C6.88274133 22.86970776 6.8474105 19.71126337 6.8046875 16.55078125 C6.81378143 15.57039383 6.82287537 14.59000641 6.83224487 13.57991028 C6.83698009 8.56999374 6.83698009 8.56999374 4.61090088 4.27108765 C2.79946217 2.72560052 2.79946217 2.72560052 0 1 C0 0.67 0 0.34 0 0 Z " fill="#4E908D" transform="translate(152,56)"/>
<path d="M0 0 C3.5 0.4375 3.5 0.4375 5.21875 2.46484375 C5.85296875 3.44130859 5.85296875 3.44130859 6.5 4.4375 C5.89414063 4.2725 5.28828125 4.1075 4.6640625 3.9375 C0.43103444 3.10391909 -2.30717246 2.66491478 -6.0390625 5.08203125 C-7.69136544 6.53763146 -9.33192825 8.00665855 -10.9609375 9.48828125 C-14.81603457 12.44780961 -18.74332545 13.03267663 -23.5 13.4375 C-20.38474504 9.68086902 -15.90638075 8.06672375 -11.59375 6.04296875 C-7.29952438 3.97773736 -4.61180654 0.57647582 0 0 Z " fill="#35827D" transform="translate(108.5,35.5625)"/>
<path d="M0 0 C0.66 0 1.32 0 2 0 C2 4.29 2 8.58 2 13 C2.66 13 3.32 13 4 13 C4.33 14.98 4.66 16.96 5 19 C5.66 19 6.32 19 7 19 C7.33 20.98 7.66 22.96 8 25 C8.66 25 9.32 25 10 25 C10 25.66 10 26.32 10 27 C10.66 27 11.32 27 12 27 C12 27.66 12 28.32 12 29 C10.125 28.375 10.125 28.375 8 27 C6.75 23.875 6.75 23.875 6 21 C5.34 21 4.68 21 4 21 C3.525625 20.030625 3.05125 19.06125 2.5625 18.0625 C1.29806053 15.19522563 1.29806053 15.19522563 0 14 C-0.07271741 11.64686445 -0.08370868 9.29166332 -0.0625 6.9375 C-0.05347656 5.64714844 -0.04445312 4.35679688 -0.03515625 3.02734375 C-0.02355469 2.02832031 -0.01195312 1.02929688 0 0 Z " fill="#1D7771" transform="translate(57,112)"/>
<path d="M0 0 C3 1 3 1 4.375 2.875 C5.86796528 5.11235327 5.86796528 5.11235327 8.1875 6.25 C10.9369048 7.96074077 12.66654859 9.65912694 14.875 12 C18.40983966 15.66204033 21.29629412 17.21259177 26 19 C26.66 19.99 27.32 20.98 28 22 C21.67751027 20.4946453 17.91667842 18.43579276 13.546875 13.625 C11.98560817 11.84043325 11.98560817 11.84043325 9.5 10.5 C5.80381827 8.28229096 2.76316332 5.30464778 0 2 C0 1.34 0 0.68 0 0 Z " fill="#A6C5C3" transform="translate(69,135)"/>
<path d="M0 0 C0.66 0 1.32 0 2 0 C2.804375 0.8971875 2.804375 0.8971875 3.625 1.8125 C6.32537098 4.2996838 8.54474066 5.04910685 11.9609375 6.20703125 C14.9876088 7.38407009 17.37772451 9.09885027 20 11 C18.375 11.6875 18.375 11.6875 16 12 C13.9737129 11.05439935 11.97620986 10.04622875 10 9 C8.783125 8.71125 7.56625 8.4225 6.3125 8.125 C3 7 3 7 1.0625 4.5 C0 2 0 2 0 0 Z " fill="#A8C7C5" transform="translate(80,164)"/>
<path d="M0 0 C3.30545729 0.90148835 4.83729626 1.83799195 7.4375 3.9375 C6.77363281 3.91429687 6.10976562 3.89109375 5.42578125 3.8671875 C-1.34425436 3.61117382 -1.34425436 3.61117382 -7.5625 5.9375 C-8.325625 6.7625 -9.08875 7.5875 -9.875 8.4375 C-13.38257608 11.70036147 -15.90642687 12.06941857 -20.5625 12.9375 C-20.2325 12.2775 -19.9025 11.6175 -19.5625 10.9375 C-18.655 10.669375 -17.7475 10.40125 -16.8125 10.125 C-12.97883143 8.72423648 -11.3182869 6.90527051 -8.5625 3.9375 C-5.46569321 0.84069321 -4.44886851 -0.07805032 0 0 Z " fill="#88B3B0" transform="translate(107.5625,39.0625)"/>
<path d="M0 0 C0.66 0.33 1.32 0.66 2 1 C-4.87110077 5.58073385 -11.25837125 6.24661783 -19.328125 6.65625 C-22.22243655 6.82762916 -22.22243655 6.82762916 -25 9 C-24.2734375 7.0703125 -24.2734375 7.0703125 -23 5 C-21.0390625 4.2421875 -21.0390625 4.2421875 -18.625 3.875 C-17.74199219 3.72933594 -16.85898437 3.58367188 -15.94921875 3.43359375 C-14.48935547 3.21896484 -14.48935547 3.21896484 -13 3 C-10.81189482 2.6495917 -8.6243843 2.2954488 -6.4375 1.9375 C-5.42558594 1.78152344 -4.41367188 1.62554687 -3.37109375 1.46484375 C-1.0534561 1.23941006 -1.0534561 1.23941006 0 0 Z " fill="#418984" transform="translate(77,42)"/>
<path d="M0 0 C2.03881615 6.15805695 -1.44681998 12.05177553 -4.1875 17.5625 C-4.785625 18.696875 -5.38375 19.83125 -6 21 C-6.99 21 -7.98 21 -9 21 C-8.1028125 19.329375 -8.1028125 19.329375 -7.1875 17.625 C-4.81973188 12.92316864 -3.37095582 8.06838212 -2 3 C-1.34 3 -0.68 3 0 3 C0 2.01 0 1.02 0 0 Z " fill="#AAC9C7" transform="translate(169,126)"/>
<path d="M0 0 C2.0625 0.4375 2.0625 0.4375 4 1 C-2.88067461 5.91476758 -8.61998702 7.28920286 -16.875 7.625 C-18.050625 7.68300781 -18.050625 7.68300781 -19.25 7.7421875 C-21.16631367 7.83566622 -23.08312319 7.91888495 -25 8 C-24.67 7.34 -24.34 6.68 -24 6 C-20.50606398 5.48896927 -17.03894798 5.16182869 -13.52148438 4.87695312 C-8.57949624 4.40118497 -3.6973299 3.6973299 0 0 Z " fill="#197770" transform="translate(79,42)"/>
<path d="M0 0 C0.33 0 0.66 0 1 0 C1.01417969 0.75023438 1.02835938 1.50046875 1.04296875 2.2734375 C1.46493898 11.32869052 4.01950148 17.52925222 9 25 C9.39387788 27.32387947 9.73486085 29.65793749 10 32 C7.25436792 30.62718396 7.16662063 29.22439198 6.125 26.375 C4.88747996 23.07184501 3.78047278 20.68290513 1.75 17.75 C-1.45691429 12.5763453 -0.2912286 5.83266164 0 0 Z " fill="#2B7D77" transform="translate(49,108)"/>
<path d="M0 0 C0.66 0.33 1.32 0.66 2 1 C-0.842887 7.11220706 -4.89200957 8.62279514 -11.02734375 11.01953125 C-13.68566202 11.89632216 -16.24463422 12.52808652 -19 13 C-16.76733663 9.44237903 -15.11096232 8.3855936 -11.0625 7.375 C-7.8129657 6.54178608 -4.89813814 5.72217521 -2 4 C-0.73195434 1.9664052 -0.73195434 1.9664052 0 0 Z " fill="#B4D0CE" transform="translate(101,43)"/>
<path d="M0 0 C-0.79664062 0.30292969 -1.59328125 0.60585938 -2.4140625 0.91796875 C-8.4417643 3.30118418 -13.33625303 5.46580156 -18 10 C-17.72432911 6.69194927 -17.24409777 5.25889157 -14.9375 2.8125 C-10.20489016 -0.10762096 -5.49294099 -1.7004873 0 0 Z " fill="#B4CFCD" transform="translate(64,43)"/>
<path d="M0 0 C3.25 -0.375 3.25 -0.375 7 0 C7.89180926 1.42028882 8.77359258 2.85003353 9.55859375 4.33203125 C12.81453835 8.09975034 18.41691319 9.37141884 23 11 C20.39949472 11.97894309 19.25694533 12.0914976 16.59765625 11.14453125 C12.04027624 8.74997565 7.88352174 6.42663683 4 3 C2.67098936 1.99426222 1.33926199 0.99204592 0 0 Z " fill="#32817B" transform="translate(115,40)"/>
<path d="M0 0 C-1.50042856 3.00085712 -3.74296705 3.28257944 -6.8125 4.5 C-11.09602373 6.19441361 -11.09602373 6.19441361 -15.24609375 8.1796875 C-17.51958909 9.24301494 -18.68838039 8.82557843 -21 8 C-18.35261084 6.5393715 -17.10551666 6 -14 6 C-13.814375 5.38125 -13.62875 4.7625 -13.4375 4.125 C-10.52866304 -0.17501986 -4.84933443 -0.29389906 0 0 Z " fill="#5D9894" transform="translate(95,47)"/>
<path d="M0 0 C0.66 0.33 1.32 0.66 2 1 C0.2758698 2.29838176 -1.45453232 3.58843747 -3.1875 4.875 C-4.63189453 5.95394531 -4.63189453 5.95394531 -6.10546875 7.0546875 C-8.72492391 8.81513105 -11.04456322 9.94737868 -14 11 C-15.34050052 11.65213539 -16.67661368 12.31379969 -18 13 C-17.9375 11.1875 -17.9375 11.1875 -17 9 C-13.5625 7.375 -13.5625 7.375 -10 6 C-9.34 5.34 -8.68 4.68 -8 4 C-5.67518826 2.98034573 -3.34205301 1.97940398 -1 1 C-0.67 0.67 -0.34 0.34 0 0 Z " fill="#18756F" transform="translate(136,159)"/>
<path d="M0 0 C1.60685189 4.01712972 0.43257376 7.06042217 -1 11 C-1.98020375 12.0194119 -2.97803008 13.02246356 -4 14 C-4.2165625 15.2375 -4.2165625 15.2375 -4.4375 16.5 C-5 19 -5 19 -7.0625 20.8125 C-7.701875 21.204375 -8.34125 21.59625 -9 22 C-7.44323039 16.93221807 -5.81069676 12.52155565 -3 8 C-2.29835358 6.01200182 -1.62627128 4.01301483 -1 2 C-0.67 1.34 -0.34 0.68 0 0 Z " fill="#D4E4E3" transform="translate(171,127)"/>
<path d="M0 0 C2.77523944 0.39603417 5.54322149 0.81569116 8.3125 1.25 C9.09818359 1.35957031 9.88386719 1.46914063 10.69335938 1.58203125 C16.54275341 2.52789071 16.54275341 2.52789071 19.04296875 5.109375 C19.35878906 5.73328125 19.67460937 6.3571875 20 7 C18.33297343 6.66847126 16.66640877 6.33462023 15 6 C13.92363281 5.78601562 12.84726563 5.57203125 11.73828125 5.3515625 C10.60777344 5.11179687 9.47726563 4.87203125 8.3125 4.625 C7.17425781 4.39039063 6.03601563 4.15578125 4.86328125 3.9140625 C2 3 2 3 0 0 Z " fill="#A3C4C1" transform="translate(142,39)"/>
<path d="M0 0 C0.99 0.33 1.98 0.66 3 1 C-0.20229933 3.65333373 -3.39659058 5.92803958 -7 8 C-9.71388813 9.6154096 -12.37121728 11.24747819 -15 13 C-15.99 12.67 -16.98 12.34 -18 12 C-15.9007582 9.70578218 -14.00589024 8.35773654 -11.1875 7.0625 C-7.2468584 5.17215532 -3.12341379 3.12341379 0 0 Z " fill="#D5E5E4" transform="translate(146,161)"/>
<path d="M0 0 C4.67908305 3.89923587 9.00181998 7.95191098 13.203125 12.36328125 C15.0053327 14.22680736 15.0053327 14.22680736 18 15 C18.33 15.99 18.66 16.98 19 18 C14.86863541 17.50649229 13.1968283 16.62428552 10.625 13.375 C7.70845271 9.81104331 4.63061864 6.60695827 1.28515625 3.4453125 C0 2 0 2 0 0 Z " fill="#86B1AE" transform="translate(59,146)"/>
<path d="M0 0 C1.32 0.33 2.64 0.66 4 1 C4 1.66 4 2.32 4 3 C4.99 3.33 5.98 3.66 7 4 C7.5775 4.78375 8.155 5.5675 8.75 6.375 C11.5135769 9.59917305 14.09543826 10.42447509 18 12 C20.9375 14.1875 20.9375 14.1875 23 16 C19.00609621 15.42944232 16.36917472 14.18996357 13 12 C11.8553125 11.4121875 11.8553125 11.4121875 10.6875 10.8125 C6.63391534 8.07868709 3.27309574 4.62233424 0 1 C0 0.67 0 0.34 0 0 Z " fill="#C5DAD9" transform="translate(78,141)"/>
<path d="M0 0 C0.70898438 0.16371094 1.41796875 0.32742187 2.1484375 0.49609375 C5.04633875 1.00818863 7.68602418 1.09893358 10.625 1.0625 C11.56601563 1.05347656 12.50703125 1.04445312 13.4765625 1.03515625 C14.30929688 1.02355469 15.14203125 1.01195312 16 1 C16.99 1 17.98 1 19 1 C17.90625 2.47265625 17.90625 2.47265625 16 4 C12.96875 4.43359375 12.96875 4.43359375 9.5 4.4375 C8.3553125 4.45683594 7.210625 4.47617188 6.03125 4.49609375 C3 4 3 4 1.09375 1.97265625 C0.7328125 1.32167969 0.371875 0.67070312 0 0 Z " fill="#207A74" transform="translate(98,162)"/>
<path d="M0 0 C0.33 0 0.66 0 1 0 C1.45262267 3.09292159 1.48338914 5.22278608 -0.1953125 7.921875 C-2.91606282 11.23052614 -4.64831935 13.2715665 -9 14 C-7.72485189 9.66449642 -5.60066001 7.37957018 -2.33984375 4.4296875 C-0.74286991 2.9252405 -0.74286991 2.9252405 0 0 Z " fill="#227C76" transform="translate(152,132)"/>
<path d="M0 0 C1.485 0.99 1.485 0.99 3 2 C3 2.66 3 3.32 3 4 C3.66 4 4.32 4 5 4 C6.1764022 5.41168264 7.34842951 6.82736644 8.4921875 8.265625 C11.02702547 11.18134536 14.00835865 13.56875256 17 16 C16.01 16.33 15.02 16.66 14 17 C11.65453302 14.74141867 9.32587973 12.46623352 7 10.1875 C6.33226563 9.54490234 5.66453125 8.90230469 4.9765625 8.24023438 C4.34492187 7.61826172 3.71328125 6.99628906 3.0625 6.35546875 C2.47597656 5.78465576 1.88945313 5.21384277 1.28515625 4.62573242 C0 3 0 3 0 0 Z " fill="#15736D" transform="translate(62,142)"/>
<path d="M0 0 C0.33 0 0.66 0 1 0 C1 4.29 1 8.58 1 13 C1.66 13 2.32 13 3 13 C3.67154933 14.28913487 4.33708859 15.58140204 5 16.875 C5.37125 17.59429687 5.7425 18.31359375 6.125 19.0546875 C7 21 7 21 7 23 C6.34 23 5.68 23 5 23 C4.34 21.02 3.68 19.04 3 17 C2.34 17 1.68 17 1 17 C-0.53266582 13.93466836 -0.10276471 10.73245728 -0.0625 7.375 C-0.05798828 6.66859375 -0.05347656 5.9621875 -0.04882812 5.234375 C-0.03703875 3.48954725 -0.01910324 1.744763 0 0 Z " fill="#86B1AE" transform="translate(62,112)"/>
<path d="M0 0 C1.58467728 0.28427417 3.1677057 0.57774818 4.75 0.875 C6.07257813 1.11863281 6.07257813 1.11863281 7.421875 1.3671875 C9.88401302 1.97153047 11.75460043 2.8588953 14 4 C16.32495277 4.38749213 18.65851268 4.72982839 21 5 C21 5.33 21 5.66 21 6 C14.3655345 6.37553578 8.19406298 5.53393486 2 3 C1.34 2.01 0.68 1.02 0 0 Z " fill="#9EC0BE" transform="translate(130,53)"/>
<path d="M0 0 C1.33417969 0.13148437 1.33417969 0.13148437 2.6953125 0.265625 C3.77425781 0.50539062 3.77425781 0.50539062 4.875 0.75 C5.205 1.41 5.535 2.07 5.875 2.75 C4.50214844 2.82347656 4.50214844 2.82347656 3.1015625 2.8984375 C1.91304687 2.97320312 0.72453125 3.04796875 -0.5 3.125 C-2.27503906 3.22941406 -2.27503906 3.22941406 -4.0859375 3.3359375 C-7.23062319 3.45217346 -7.23062319 3.45217346 -9.125 5.75 C-8.8125 3.875 -8.8125 3.875 -8.125 1.75 C-4.71992291 -0.52005139 -3.91021579 -0.43320175 0 0 Z " fill="#CCDFDE" transform="translate(110.125,42.25)"/>
<path d="M0 0 C5.625 -0.25 5.625 -0.25 9 2 C11.27912938 2.45394552 11.27912938 2.45394552 13.6875 2.625 C14.49574219 2.69976562 15.30398437 2.77453125 16.13671875 2.8515625 C16.75160156 2.90054688 17.36648437 2.94953125 18 3 C16 5 16 5 13.828125 5.08203125 C8.60992173 4.53649182 4.57983257 3.77200392 0 1 C0 0.67 0 0.34 0 0 Z " fill="#CEE1E0" transform="translate(96,176)"/>
<path d="M0 0 C6.5018106 1.61482878 10.44793407 3.15627864 14 9 C14.3125 12.375 14.3125 12.375 14 15 C11.9338198 12.50633424 10.09337875 10.17457766 8.5625 7.3125 C6.65858178 4.49470104 5.135081 4.12541369 2 3 C1.34 2.01 0.68 1.02 0 0 Z " fill="#C6DBDA" transform="translate(159,42)"/>
<path d="M0 0 C5.94 0.33 11.88 0.66 18 1 C18.99 2.98 19.98 4.96 21 7 C19.0625 6.1875 19.0625 6.1875 17 5 C16.67 4.01 16.34 3.02 16 2 C10.39 2 4.78 2 -1 2 C-0.67 1.34 -0.34 0.68 0 0 Z " fill="#B8D3D1" transform="translate(104,23)"/>
<path d="M0 0 C4.91935902 4.11619836 9.52647956 8.40410362 14 13 C11 13 11 13 9.0625 11.125 C8.381875 10.42375 7.70125 9.7225 7 9 C6.319375 8.690625 5.63875 8.38125 4.9375 8.0625 C2.24420976 6.58553438 1.35252756 4.70505512 0 2 C0 1.34 0 0.68 0 0 Z " fill="#ACC9C7" transform="translate(59,148)"/>
<path d="M0 0 C0.66 0.33 1.32 0.66 2 1 C1.401875 1.556875 0.80375 2.11375 0.1875 2.6875 C-2.07678453 4.87214047 -2.07678453 4.87214047 -3.3125 7.5 C-5.6622856 10.98116386 -8.27851854 12.10415096 -12 14 C-10.75794193 10.27382578 -8.8889325 8.60708543 -6 6 C-5.34 6 -4.68 6 -4 6 C-3.566875 5.071875 -3.566875 5.071875 -3.125 4.125 C-2 2 -2 2 0 0 Z " fill="#287C76" transform="translate(154,144)"/>
<path d="M0 0 C0.33 0.99 0.66 1.98 1 3 C-2.15670994 7.40026234 -5.76696765 10.65295116 -10 14 C-10.66 13.67 -11.32 13.34 -12 13 C-10.75160427 11.58191941 -9.50120779 10.16560005 -8.25 8.75 C-7.55390625 7.96109375 -6.8578125 7.1721875 -6.140625 6.359375 C-4.15413084 4.16988144 -2.10898692 2.07098715 0 0 Z " fill="#9CC0BD" transform="translate(146,135)"/>
<path d="M0 0 C-3.48681101 3.48681101 -8.5074582 4.79878987 -13.37109375 5.19140625 C-15.24847731 5.18805976 -17.12540005 5.10225091 -19 5 C-19 4.67 -19 4.34 -19 4 C-17.40501457 3.54924325 -15.8099961 3.09860319 -14.21484375 2.6484375 C-12.5965649 2.17465569 -10.98539058 1.67641369 -9.37890625 1.1640625 C-8.49074219 0.88304687 -7.60257813 0.60203125 -6.6875 0.3125 C-5.84574219 0.04050781 -5.00398438 -0.23148438 -4.13671875 -0.51171875 C-2 -1 -2 -1 0 0 Z " fill="#237973" transform="translate(83,50)"/>
<path d="M0 0 C0.86625 0.763125 1.7325 1.52625 2.625 2.3125 C4.81666559 4.15702234 6.56334012 5.27614712 9.1875 6.5625 C12.09401301 8.0480511 13.30115891 9.26297825 15 12 C14.46375 11.71125 13.9275 11.4225 13.375 11.125 C10.96307703 9.89931023 10.96307703 9.89931023 8.0625 9.1875 C4.38761844 7.76254592 2.50249434 6.01771376 0 3 C0 2.01 0 1.02 0 0 Z " fill="#1C7872" transform="translate(80,150)"/>
<path d="M0 0 C3.66571051 1.67207848 6.26046779 3.87315253 9.21875 6.5625 C11.05483541 8.04425314 12.85912386 9.02346001 15 10 C12.14362445 10.53557042 10.74238354 10.77914448 8 10 C4.93149041 7.31038464 2.39880563 4.29602124 0 1 C0 0.67 0 0.34 0 0 Z " fill="#AFCBC9" transform="translate(115,43)"/>
<path d="M0 0 C1.32218819 2.64437637 0.75233284 3.59524016 -0.125 6.375 C-1.56039872 10.52096559 -3.19811771 12.63666777 -7 15 C-5.34292168 9.35086937 -3.52237988 4.73699363 0 0 Z " fill="#74A6A2" transform="translate(165,132)"/>
<path d="M0 0 C-1.43663023 2.87326046 -3.14063314 3.57031657 -6 5 C-9.8125 5.6875 -9.8125 5.6875 -13 6 C-8.77109678 1.55965162 -6.36692573 -0.43410857 0 0 Z " fill="#B8D3D1" transform="translate(90,33)"/>
<path d="M0 0 C3.94727588 -0.17942163 6.5980513 -0.09350689 10 2 C10 2.66 10 3.32 10 4 C10.66 4.33 11.32 4.66 12 5 C8.06693147 4.45119974 4.58646443 3.74199701 1 2 C0.67 1.34 0.34 0.68 0 0 Z " fill="#72A4A0" transform="translate(124,49)"/>
<path d="M0 0 C0.66 0.33 1.32 0.66 2 1 C-0.38172388 3.73544525 -2.70665291 4.92545358 -6.0625 6.25 C-7.37927734 6.78367188 -7.37927734 6.78367188 -8.72265625 7.328125 C-11 8 -11 8 -13 7 C-10.00116548 5.12572843 -6.9431502 3.3923083 -3.8125 1.75 C-2.80123047 1.21632812 -2.80123047 1.21632812 -1.76953125 0.671875 C-1.18558594 0.45015625 -0.60164062 0.2284375 0 0 Z " fill="#84B0AD" transform="translate(133,166)"/>
<path d="M0 0 C2.64752004 2.57784846 4.94432065 4.91648098 7 8 C6.625 10.1875 6.625 10.1875 6 12 C0.44419134 4.88610478 0.44419134 4.88610478 0 0 Z " fill="#81AFAA" transform="translate(52,134)"/>
<path d="M0 0 C0.33 0.66 0.66 1.32 1 2 C-2.17320782 5.53586014 -4.16743695 7.58578031 -9 8 C-6.14723863 5.06799526 -3.34920216 2.35684596 0 0 Z " fill="#18756F" transform="translate(95,33)"/>
<path d="M0 0 C3.09411467 1.54705733 3.71558965 3.88071772 5 7 C4.6875 9.375 4.6875 9.375 4 11 C1.29727467 8.12835434 0.05208163 6.69008159 -0.25 2.6875 C-0.1675 1.800625 -0.085 0.91375 0 0 Z " fill="#50928C" transform="translate(52,128)"/>
<path d="M0 0 C2.64 0 5.28 0 8 0 C8.66 1.32 9.32 2.64 10 4 C6.44219804 3.39009109 3.3171411 2.4216319 0 1 C0 0.67 0 0.34 0 0 Z " fill="#C2D8D7" transform="translate(72,164)"/>
<path d="M0 0 C3.41459553 1.13819851 4.3324158 2.24005518 6.625 4.9375 C7.23601562 5.64777344 7.84703125 6.35804688 8.4765625 7.08984375 C10 9 10 9 11 11 C7.84164893 9.60249952 5.67727175 7.94801766 3.25 5.5 C2.63640625 4.8915625 2.0228125 4.283125 1.390625 3.65625 C0 2 0 2 0 0 Z " fill="#97BDBA" transform="translate(69,135)"/>
<path d="M0 0 C0.88336837 2.4667645 1.1312406 3.63859372 0.22265625 6.140625 C-0.16019531 6.83671875 -0.54304688 7.5328125 -0.9375 8.25 C-1.31777344 8.95640625 -1.69804688 9.6628125 -2.08984375 10.390625 C-2.39019531 10.92171875 -2.69054688 11.4528125 -3 12 C-3.88336837 9.5332355 -4.1312406 8.36140628 -3.22265625 5.859375 C-2.83980469 5.16328125 -2.45695312 4.4671875 -2.0625 3.75 C-1.68222656 3.04359375 -1.30195312 2.3371875 -0.91015625 1.609375 C-0.60980469 1.07828125 -0.30945312 0.5471875 0 0 Z " fill="#1A756E" transform="translate(53,50)"/>
<path d="M0 0 C3.3125 -0.3125 3.3125 -0.3125 7 0 C8.9375 2.5 8.9375 2.5 10 5 C6.33118845 4.29445932 3.29549466 2.72264494 0 1 C0 0.67 0 0.34 0 0 Z " fill="#267C75" transform="translate(115,40)"/>
<path d="M0 0 C1.62463842 -0.05395478 3.24978541 -0.09277195 4.875 -0.125 C5.77992188 -0.14820313 6.68484375 -0.17140625 7.6171875 -0.1953125 C10 0 10 0 12 2 C11.67 2.99 11.34 3.98 11 5 C10.484375 4.525625 9.96875 4.05125 9.4375 3.5625 C6.33217325 1.57190593 3.63367496 1.34939182 0 1 C0 0.67 0 0.34 0 0 Z " fill="#87B1AF" transform="translate(144,57)"/>
<path d="M0 0 C2.5 0.3125 2.5 0.3125 5 1 C5.33 1.66 5.66 2.32 6 3 C4.329375 3.2165625 4.329375 3.2165625 2.625 3.4375 C-0.82142047 3.78372035 -0.82142047 3.78372035 -3 5 C-1.125 1.125 -1.125 1.125 0 0 Z " fill="#13746D" transform="translate(106,33)"/>
<path d="M0 0 C3.29148243 1.13499394 3.9959869 1.99283376 5.75 5.125 C6.1625 6.07375 6.575 7.0225 7 8 C3.64379729 6.61122646 1.92701272 5.08322035 0 2 C0 1.34 0 0.68 0 0 Z " fill="#CADEDC" transform="translate(55,146)"/>
<path d="M0 0 C0.66 0.33 1.32 0.66 2 1 C-2.39453125 5.00390625 -2.39453125 5.00390625 -4 6 C-4.99 5.67 -5.98 5.34 -7 5 C-4.88437775 2.67281553 -2.94982021 1.14186589 0 0 Z " fill="#CDE0DE" transform="translate(135,168)"/>
</svg>
